<svg width="24" height="24" viewBox="0 0 24 24" fill="none" xmlns="http://www.w3.org/2000/svg">
<path d="M10.3124 6.37528H6.93749C6.59999 6.37528 6.375 6.15029 6.375 5.8128V4.68782C6.375 3.78785 7.16248 3.00037 8.06246 3.00037H9.18743C10.0874 3.00037 10.8749 3.78785 10.8749 4.68782V5.8128C10.8749 6.15029 10.6499 6.37528 10.3124 6.37528ZM17.0622 6.37528H13.6873C13.3498 6.37528 13.1248 6.15029 13.1248 5.8128V4.68782C13.1248 3.78785 13.9123 3.00037 14.8123 3.00037H15.9373C16.8372 3.00037 17.6247 3.78785 17.6247 4.68782V5.8128C17.6247 6.15029 17.3997 6.37528 17.0622 6.37528Z" fill="#5B5C5F"/>
<path d="M15.9381 3.00037H14.8131C14.7006 3.00037 14.5881 3.00037 14.4756 3.00037C15.2631 3.11286 15.9381 3.78785 15.9381 4.68782V6.37528H17.063C17.4005 6.37528 17.6255 6.15029 17.6255 5.8128V4.68782C17.6255 3.78785 16.838 3.00037 15.9381 3.00037Z" fill="#212121"/>
<path d="M19.3121 21H4.68746C3.78748 21 3 20.2126 3 19.3126V9.75031H20.9996V19.3126C20.9996 20.2126 20.2121 21 19.3121 21Z" fill="#F0F0F0"/>
<path d="M20.9996 9.75026H3V6.93783C3 6.03785 3.78748 5.25037 4.68746 5.25037H19.3121C20.2121 5.25037 20.9996 6.03785 20.9996 6.93783V9.75026Z" fill="#F71E1E"/>
<path d="M19.3124 9.75012V17.0624C19.3124 18.7499 18.2999 20.2124 16.95 20.9998H19.3124C20.2124 20.9998 20.9999 20.2124 20.9999 19.3124V9.75012H19.3124Z" fill="#CFD3D4"/>
<path d="M19.3124 9.18753V9.75001H20.9999V6.93758C20.9999 6.0376 20.2124 5.25012 19.3124 5.25012H16.95C18.2999 6.0376 19.3124 7.50007 19.3124 9.18753Z" fill="#D80303"/>
</svg>
