<svg width="24" height="24" viewBox="0 0 24 24" fill="none" xmlns="http://www.w3.org/2000/svg">
<path d="M11.9998 20.9995C16.9703 20.9995 20.9998 16.9701 20.9998 11.9995C20.9998 7.02895 16.9703 2.99951 11.9998 2.99951C7.02919 2.99951 2.99976 7.02895 2.99976 11.9995C2.99976 16.9701 7.02919 20.9995 11.9998 20.9995Z" fill="#FBB03A"/>
<path d="M19.4032 12.0001C19.4032 12.1058 19.3993 12.2155 19.3954 12.3212C19.2349 16.1498 16.1501 19.2346 12.3215 19.399C12.2158 19.4029 12.1101 19.4068 12.0004 19.4068C11.8947 19.4068 11.7851 19.4029 11.6794 19.399C7.85082 19.2346 4.766 16.1498 4.60158 12.3212C4.59766 12.2155 4.59375 12.1098 4.59375 12.0001C4.59375 11.8944 4.59766 11.7848 4.60158 11.6791C4.766 7.85051 7.85082 4.76569 11.6794 4.60127C11.7851 4.59736 11.8908 4.59344 12.0004 4.59344C12.1061 4.59344 12.2158 4.59736 12.3215 4.60127C16.1501 4.76569 19.2349 7.85051 19.3993 11.6791C19.4032 11.7848 19.4032 11.8944 19.4032 12.0001Z" fill="#F2F2F3"/>
<path d="M12.3215 4.60127V5.51732C12.3215 5.69349 12.1766 5.83833 12.0004 5.83833C11.8243 5.83833 11.6794 5.6974 11.6794 5.51732V4.60127C11.7851 4.59736 11.8908 4.59344 12.0004 4.59344C12.1101 4.59736 12.2158 4.59736 12.3215 4.60127ZM12.3215 18.483V19.399C12.2158 19.4029 12.1101 19.4068 12.0004 19.4068C11.8947 19.4068 11.7851 19.4029 11.6794 19.399V18.483C11.6794 18.3068 11.8204 18.162 12.0004 18.162C12.1766 18.162 12.3215 18.3068 12.3215 18.483ZM5.83864 12.0001C5.83864 12.1763 5.69379 12.3212 5.51763 12.3212H4.60158C4.59766 12.2155 4.59375 12.1098 4.59375 12.0001C4.59375 11.8944 4.59766 11.7848 4.60158 11.6791H5.51763C5.69379 11.6791 5.83864 11.824 5.83864 12.0001ZM19.4032 12.0001C19.4032 12.1058 19.3993 12.2155 19.3954 12.3212H18.4794C18.3032 12.3212 18.1583 12.1763 18.1583 12.0001C18.1583 11.824 18.3032 11.6791 18.4794 11.6791H19.3993C19.4032 11.7848 19.4032 11.8944 19.4032 12.0001Z" fill="#272361"/>
<path d="M11.9997 12.3211C11.9175 12.3211 11.8353 12.2898 11.7726 12.2271L7.40767 7.8622C7.2824 7.73693 7.2824 7.53337 7.40767 7.41201C7.53295 7.28674 7.73651 7.28674 7.85787 7.41201L11.6787 11.2328V7.64689C11.6787 7.47073 11.8235 7.32588 11.9997 7.32588C12.1758 7.32588 12.3207 7.47073 12.3207 7.64689V12.0001C12.3207 12.1293 12.2424 12.2467 12.1249 12.2937C12.0819 12.3133 12.0427 12.3211 11.9997 12.3211Z" fill="#272361"/>
</svg>
