<svg width="191" height="26" viewBox="0 0 191 26" fill="none" xmlns="http://www.w3.org/2000/svg">
<path d="M6.87091 21.7289C6.85052 21.7715 6.82826 21.8549 6.80787 21.981C6.57612 22.8431 6.45561 23.6144 6.44449 24.2967C6.43336 24.9789 6.72259 25.448 7.31216 25.7001H0C0.671147 25.448 1.17172 24.99 1.49617 24.33C1.82247 23.6681 2.08945 22.895 2.29895 22.0125C2.31935 21.8865 2.3416 21.7919 2.36199 21.7289L7.08968 2.72356C5.72329 3.37431 4.48482 4.40884 3.37056 5.829C2.25631 7.24731 1.1847 8.90107 0.155735 10.7921L2.70869 1.77802H16.482L14.4964 10.7921C14.4741 9.1736 14.2331 7.55692 13.7715 5.93838C13.3098 4.31984 12.5849 3.24824 11.5967 2.72356L6.86905 21.7289H6.87091Z" fill="black"/>
<path d="M25.9077 21.7288C25.8855 21.7714 25.8651 21.8549 25.8447 21.9809C25.6129 22.843 25.4924 23.6143 25.4813 24.2966C25.4702 24.9788 25.7594 25.4479 26.3471 25.7H19.035C19.7061 25.4479 20.2067 24.99 20.5311 24.3299C20.8575 23.6681 21.1244 22.895 21.3358 22.0124C21.3562 21.8864 21.3766 21.7918 21.3988 21.7288L22.8802 15.7719C23.4048 13.6713 23.3214 12.6201 22.628 12.6201C21.9346 12.6201 21.1003 13.5286 20.1233 15.3473C19.1462 17.1642 18.3527 19.3019 17.7427 21.7603C17.7223 21.8029 17.7001 21.866 17.6797 21.9494C17.448 22.8319 17.333 23.6143 17.333 24.2984C17.333 24.9826 17.6167 25.4498 18.184 25.7019H10.8718C11.5652 25.4498 12.0751 24.9826 12.3995 24.2984C12.7258 23.6162 12.9928 22.843 13.2023 21.9828C13.2245 21.8567 13.2449 21.7733 13.2653 21.7306L17.2366 5.75104C17.257 5.7084 17.2774 5.6361 17.2996 5.53042C17.5314 4.64792 17.6519 3.86553 17.663 3.18141C17.6723 2.49914 17.3942 2.03008 16.8269 1.77793C17.9411 1.77793 19.0591 1.70377 20.1845 1.55731C21.308 1.41084 22.2164 1.21061 22.9117 0.958469L19.1295 16.2131C20.0751 14.2386 21.13 12.698 22.298 11.5948C23.4642 10.4917 24.6248 9.94108 25.7798 9.94108C26.768 9.94108 27.4243 10.3564 27.7488 11.1851C28.0751 12.0157 28.038 13.1967 27.6394 14.7299L25.9059 21.7269L25.9077 21.7288Z" fill="black"/>
<path d="M38.83 18.6865C37.4432 19.7266 35.6356 20.7185 33.4089 21.6659C33.8075 22.8636 34.627 23.4624 35.8673 23.4624C36.8332 23.4624 37.8362 23.1269 38.8763 22.4539C39.9164 21.7809 40.8564 20.7315 41.6963 19.3021C40.6246 21.6548 39.338 23.3568 37.8362 24.408C36.3345 25.4592 34.7623 25.9839 33.1234 25.9839C31.1062 25.9839 29.6731 25.2794 28.8203 23.8722C27.9693 22.465 27.8395 20.5739 28.4272 18.1989C29.0576 15.6775 30.2126 13.6715 31.8942 12.179C33.5758 10.6866 35.4353 9.94124 37.4729 9.94124C38.9023 9.94124 40.0369 10.325 40.8768 11.0926C41.7167 11.8601 41.9373 13.0319 41.5387 14.6077C41.1178 16.2893 40.2149 17.6502 38.8281 18.6884L38.83 18.6865ZM33.3143 21.4138C35.2685 19.7952 36.6237 17.5055 37.3802 14.5429C37.6749 13.3025 37.7899 12.3199 37.7269 11.595C37.6638 10.8701 37.4321 10.5067 37.0335 10.5067C36.4865 10.5067 35.8933 11.0685 35.2536 12.1938C34.6121 13.3174 34.0819 14.7208 33.661 16.4006C33.1364 18.5234 33.0196 20.1938 33.3143 21.4119V21.4138Z" fill="black"/>
<path d="M54.5892 21.7289C54.5669 21.7715 54.5465 21.8549 54.5261 21.981C54.2944 22.8431 54.1739 23.6144 54.1628 24.2966C54.1516 24.9789 54.4409 25.448 55.0304 25.7001H47.7183C48.4117 25.448 48.9215 24.9808 49.2478 24.2966C49.5741 23.6144 49.8411 22.8413 50.0506 21.981C50.0728 21.8549 50.0932 21.7715 50.1136 21.7289L54.0849 5.74928C54.1053 5.70663 54.1275 5.63433 54.1479 5.52865C54.3797 4.64615 54.5002 3.86375 54.5113 3.17963C54.5224 2.49736 54.2443 2.0283 53.677 1.77615H60.9892C60.2958 2.0283 59.7804 2.49551 59.4448 3.17963C59.1092 3.8619 58.8348 4.64615 58.6253 5.52865C58.6049 5.63433 58.5827 5.70663 58.5623 5.74928L54.591 21.7289H54.5892Z" fill="black"/>
<path d="M70.4744 21.7289C70.4521 21.7716 70.4317 21.855 70.4114 21.9811C70.1796 22.8432 70.0591 23.6144 70.048 24.2967C70.0369 24.979 70.3261 25.448 70.9138 25.7002H63.6016C64.2746 25.448 64.7734 24.9901 65.0997 24.3301C65.426 23.6682 65.6929 22.8951 65.9024 22.0126C65.9228 21.8865 65.9451 21.7919 65.9655 21.7289L67.4468 15.772C67.9715 13.6715 67.8881 12.6202 67.1947 12.6202C66.5013 12.6202 65.6651 13.5287 64.6881 15.3475C63.711 17.1644 62.9175 19.302 62.3094 21.7604C62.2871 21.8031 62.2668 21.8661 62.2464 21.9495C62.0146 22.832 61.8997 23.6144 61.8997 24.2986C61.8997 24.9827 62.1833 25.4499 62.7506 25.702H55.4385C56.1319 25.4499 56.6417 24.9827 56.9662 24.2986C57.2925 23.6163 57.5595 22.8432 57.7708 21.9829C57.7912 21.8568 57.8135 21.7734 57.8338 21.7308L59.5043 15.049C59.5043 15.0063 59.5247 14.9229 59.5673 14.7968C59.7991 13.9347 59.914 13.1635 59.914 12.4793C59.914 11.7952 59.6304 11.3299 59.063 11.0777C60.1773 11.0777 61.2953 10.9998 62.4206 10.8404C63.5442 10.6828 64.4637 10.477 65.1794 10.2267L63.698 16.2151C64.6436 14.2406 65.6985 12.7 66.8665 11.5968C68.0327 10.4937 69.1933 9.94307 70.3502 9.94307C71.3384 9.94307 71.9947 10.3584 72.3191 11.1871C72.6454 12.0177 72.6083 13.1987 72.2079 14.7319L70.4744 21.7289Z" fill="black"/>
<path d="M86.1383 21.7289C86.1179 21.7716 86.0957 21.855 86.0753 21.9811C85.8435 22.8432 85.723 23.6144 85.7119 24.2967C85.7008 24.979 85.99 25.448 86.5796 25.7002H79.2674C79.9385 25.448 80.4391 24.9901 80.7636 24.3301C81.0899 23.6682 81.3568 22.8951 81.5682 22.0126C81.5886 21.8865 81.609 21.7919 81.6312 21.7289L83.1126 15.772C83.6373 13.6715 83.5538 12.6202 82.8604 12.6202C82.167 12.6202 81.3327 13.5287 80.3557 15.3475C79.3786 17.1644 78.5851 19.302 77.9752 21.7604C77.9548 21.8031 77.9325 21.8661 77.9121 21.9495C77.6804 22.832 77.5654 23.6144 77.5654 24.2986C77.5654 24.9827 77.8491 25.4499 78.4164 25.702H71.1042C71.7976 25.4499 72.3075 24.9827 72.6338 24.2986C72.9601 23.6163 73.2271 22.8432 73.4366 21.9829C73.4588 21.8568 73.4792 21.7734 73.4996 21.7308L75.1701 15.049C75.1701 15.0063 75.1905 14.9229 75.2331 14.7968C75.463 13.9347 75.5798 13.1635 75.5798 12.4793C75.5798 11.7952 75.2961 11.3299 74.7288 11.0777C75.8431 11.0777 76.961 10.9998 78.0864 10.8404C79.2099 10.6828 80.1295 10.477 80.8452 10.2267L79.3638 16.2151C80.3093 14.2406 81.3643 12.7 82.5304 11.5968C83.6966 10.4937 84.8572 9.94307 86.0141 9.94307C87.0023 9.94307 87.6586 10.3584 87.983 11.1871C88.3093 12.0177 88.2723 13.1987 87.8736 14.7319L86.1402 21.7289H86.1383Z" fill="black"/>
<path d="M99.0609 18.6865C97.6741 19.7266 95.8664 20.7185 93.6398 21.6659C94.0384 22.8636 94.8578 23.4624 96.0982 23.4624C97.0641 23.4624 98.0671 23.1269 99.1091 22.4539C100.149 21.7809 101.089 20.7315 101.929 19.3021C100.857 21.6548 99.5707 23.3568 98.0671 24.408C96.5654 25.4592 94.995 25.9839 93.3561 25.9839C91.339 25.9839 89.904 25.2794 89.053 23.8722C88.202 22.465 88.0704 20.5739 88.6599 18.1989C89.2903 15.6775 90.4453 13.6715 92.1269 12.179C93.8085 10.6866 95.6681 9.94124 97.7056 9.94124C99.135 9.94124 100.27 10.325 101.11 11.0926C101.949 11.8601 102.17 13.0319 101.771 14.6077C101.351 16.2893 100.448 17.6502 99.0609 18.6884V18.6865ZM93.5452 21.4138C95.4993 19.7952 96.8546 17.5055 97.611 14.5429C97.9058 13.3025 98.0208 12.3199 97.9577 11.595C97.8947 10.8701 97.663 10.5067 97.2643 10.5067C96.7174 10.5067 96.1241 11.0685 95.4827 12.1938C94.8412 13.3174 94.3109 14.7208 93.8919 16.4006C93.3654 18.5234 93.2504 20.1938 93.5452 21.4119V21.4138Z" fill="black"/>
<path d="M112.424 16.8436C112.719 15.6663 112.814 14.6689 112.708 13.8494C112.602 13.03 112.341 12.6202 111.92 12.6202C111.499 12.6202 110.995 13.0411 110.407 13.881C109.818 14.7208 109.23 15.8462 108.642 17.2534C108.055 18.6606 107.56 20.1641 107.161 21.7604C107.139 21.8031 107.118 21.8661 107.098 21.9495C106.866 22.832 106.751 23.6144 106.751 24.2986C106.751 24.9827 107.035 25.4499 107.602 25.702H100.29C100.983 25.4499 101.493 24.9827 101.818 24.2986C102.144 23.6163 102.411 22.8432 102.622 21.9829C102.643 21.8568 102.665 21.7734 102.685 21.7308L104.356 15.049C104.356 15.0063 104.376 14.9229 104.419 14.7968C104.651 13.9347 104.766 13.1635 104.766 12.4793C104.766 11.7952 104.482 11.3299 103.915 11.0777C105.029 11.0777 106.147 10.9998 107.272 10.8404C108.396 10.6828 109.315 10.477 110.031 10.2267L108.55 16.1521C109.452 14.2406 110.426 12.7278 111.464 11.6135C112.504 10.4993 113.455 9.94307 114.317 9.94307C114.696 9.94307 115.094 10.0524 115.515 10.2749C115.936 10.4956 116.283 10.7941 116.555 11.1723L112.426 16.8455L112.424 16.8436Z" fill="black"/>
<path d="M134.613 12.3681C135.39 10.0154 135.848 8.06497 135.983 6.52059C136.12 4.97621 136.026 3.84712 135.7 3.13333C135.373 2.41954 134.938 2.06173 134.393 2.06173C133.803 2.06173 133.18 2.43438 132.516 3.18154C131.854 3.92684 131.187 5.05779 130.516 6.56879C129.843 8.08165 129.224 9.97272 128.656 12.242C127.753 15.8555 127.453 18.629 127.759 20.5628C128.063 22.4965 128.91 23.4624 130.295 23.4624C131.45 23.4624 132.639 22.8172 133.857 21.5231C135.075 20.2309 136.263 18.0728 137.418 15.0471C136.43 18.8923 135.06 21.677 133.304 23.3994C131.55 25.1217 129.737 25.9838 127.866 25.9838C126.543 25.9838 125.429 25.5481 124.526 24.6749C123.623 23.8035 123.05 22.4742 122.807 20.6888C122.566 18.9034 122.801 16.56 123.517 13.6603C124.21 10.8867 125.13 8.5915 126.276 6.77458C127.422 4.95767 128.677 3.62278 130.041 2.7718C131.408 1.92082 132.783 1.49626 134.17 1.49626C135.262 1.49626 136.245 1.76323 137.118 2.29903C137.989 2.83484 138.657 3.63762 139.118 4.70923L134.611 12.3681H134.613Z" fill="black"/>
<path d="M141.894 21.7289C141.873 21.7715 141.851 21.8549 141.831 21.981C141.599 22.8431 141.478 23.6144 141.467 24.2966C141.456 24.9789 141.745 25.448 142.335 25.7001H135.023C135.716 25.448 136.226 24.9808 136.552 24.2966C136.879 23.6144 137.146 22.8413 137.355 21.981C137.377 21.8549 137.398 21.7715 137.418 21.7289L139.089 15.0471C139.089 15.0044 139.109 14.921 139.152 14.7949C139.381 13.9328 139.498 13.1615 139.498 12.4774C139.498 11.7933 139.215 11.3279 138.647 11.0758C139.762 11.0758 140.879 10.9979 142.005 10.8385C143.128 10.6809 144.048 10.4751 144.764 10.2248L141.895 21.7289H141.894Z" fill="black"/>
<path d="M154.722 16.8436C155.016 15.6663 155.111 14.6689 155.005 13.8494C154.9 13.03 154.638 12.6202 154.217 12.6202C153.796 12.6202 153.292 13.0411 152.704 13.881C152.115 14.7208 151.527 15.8462 150.939 17.2534C150.352 18.6606 149.857 20.1641 149.458 21.7604C149.436 21.8031 149.415 21.8661 149.395 21.9495C149.163 22.832 149.048 23.6144 149.048 24.2986C149.048 24.9827 149.332 25.4499 149.899 25.702H142.587C143.281 25.4499 143.79 24.9827 144.115 24.2986C144.441 23.6163 144.708 22.8432 144.919 21.9829C144.94 21.8568 144.962 21.7734 144.983 21.7308L146.653 15.049C146.653 15.0063 146.673 14.9229 146.716 14.7968C146.948 13.9347 147.063 13.1635 147.063 12.4793C147.063 11.7952 146.779 11.3299 146.212 11.0777C147.326 11.0777 148.444 10.9998 149.569 10.8404C150.693 10.6828 151.612 10.477 152.328 10.2267L150.847 16.1521C151.75 14.2406 152.723 12.7278 153.761 11.6135C154.801 10.4993 155.752 9.94307 156.614 9.94307C156.993 9.94307 157.391 10.0524 157.812 10.2749C158.233 10.4956 158.58 10.7941 158.852 11.1723L154.723 16.8455L154.722 16.8436Z" fill="black"/>
<path d="M166.698 17.9783C167.14 15.6033 167.303 13.766 167.186 12.4627C167.071 11.1593 166.676 10.5086 166.003 10.5086C165.33 10.5086 164.559 11.0926 163.749 12.2587C162.938 13.4249 162.304 14.9322 161.841 16.7806C161.337 18.7978 161.274 20.4163 161.652 21.6344C162.03 22.8525 162.861 23.4624 164.142 23.4624C165.108 23.4624 166.111 23.1269 167.153 22.4539C168.193 21.7809 169.133 20.7315 169.972 19.3021C168.901 21.6548 167.614 23.3568 166.111 24.408C164.609 25.4592 163.038 25.9839 161.4 25.9839C159.382 25.9839 157.947 25.2794 157.096 23.8722C156.245 22.465 156.114 20.5739 156.703 18.1989C157.334 15.6775 158.489 13.6715 160.17 12.179C161.852 10.6866 163.7 9.94124 165.718 9.94124C166.999 9.94124 168.007 10.2305 168.743 10.8071C169.479 11.3855 170.056 12.1679 170.477 13.1561L166.695 17.9783H166.698Z" fill="black"/>
<path d="M175.114 21.7287C175.093 21.7714 175.071 21.8548 175.051 21.9809C174.819 22.843 174.698 23.6143 174.687 24.2965C174.676 24.9788 174.965 25.4479 175.555 25.7H168.243C168.936 25.4479 169.446 24.9807 169.77 24.2965C170.097 23.6143 170.364 22.8411 170.573 21.9809C170.595 21.8548 170.616 21.7714 170.636 21.7287L174.607 5.74916C174.628 5.70652 174.648 5.63421 174.67 5.52853C174.902 4.64603 175.023 3.86364 175.034 3.17951C175.043 2.49724 174.765 2.02818 174.198 1.77604C175.312 1.77604 176.43 1.70188 177.555 1.55541C178.679 1.40894 179.587 1.20872 180.283 0.956573L175.114 21.7269V21.7287Z" fill="black"/>
<path d="M188.099 18.6865C186.712 19.7266 184.905 20.7185 182.678 21.6659C183.077 22.8636 183.896 23.4624 185.136 23.4624C186.102 23.4624 187.105 23.1269 188.145 22.4539C189.185 21.7809 190.125 20.7315 190.965 19.3021C189.894 21.6548 188.607 23.3568 187.105 24.408C185.604 25.4592 184.031 25.9839 182.392 25.9839C180.375 25.9839 178.942 25.2794 178.089 23.8722C177.238 22.465 177.109 20.5739 177.696 18.1989C178.327 15.6775 179.482 13.6715 181.163 12.179C182.845 10.6866 184.704 9.94124 186.742 9.94124C188.171 9.94124 189.306 10.325 190.146 11.0926C190.986 11.8601 191.206 13.0319 190.808 14.6077C190.387 16.2893 189.484 17.6502 188.097 18.6884L188.099 18.6865ZM182.583 21.4138C184.537 19.7952 185.893 17.5055 186.649 14.5429C186.944 13.3025 187.059 12.3199 186.996 11.595C186.933 10.8701 186.701 10.5067 186.303 10.5067C185.756 10.5067 185.162 11.0685 184.523 12.1938C183.881 13.3174 183.351 14.7208 182.93 16.4006C182.405 18.5234 182.289 20.1938 182.583 21.4119V21.4138Z" fill="black"/>
<path d="M147.674 3.47994C147.3 5.40254 145.44 6.9599 143.518 6.9599C141.595 6.9599 140.34 5.40254 140.715 3.47994C141.089 1.55735 142.949 0 144.871 0C146.794 0 148.049 1.55735 147.674 3.47994Z" fill="#E34D25"/>
</svg>
