<svg width="24" height="24" viewBox="0 0 24 24" fill="none" xmlns="http://www.w3.org/2000/svg">
<path fill-rule="evenodd" clip-rule="evenodd" d="M6.72675 5.4138C8.12823 4.03284 10.0154 3.25665 11.983 3.25197C13.9505 3.2473 15.8414 4.01451 17.2494 5.3888H17.2511L17.2778 5.4138C20.232 8.31968 20.2378 12.9873 17.3128 15.864L12.5868 20.5124C12.431 20.6658 12.221 20.7518 12.0023 20.7518C11.7835 20.7518 11.5735 20.6658 11.4177 20.5124L6.69175 15.864C5.99793 15.1856 5.44664 14.3755 5.07026 13.4812C4.69388 12.5868 4.5 11.6263 4.5 10.656C4.5 9.68565 4.69388 8.72511 5.07026 7.83077C5.44664 6.93642 5.99793 6.1263 6.69175 5.44797L6.72675 5.4138ZM12.0002 7.418C11.6719 7.418 11.3468 7.48267 11.0434 7.6083C10.7401 7.73394 10.4645 7.9181 10.2324 8.15025C10.0002 8.3824 9.81607 8.658 9.69043 8.96132C9.5648 9.26464 9.50013 9.58973 9.50013 9.91804C9.50013 10.2463 9.5648 10.5714 9.69043 10.8748C9.81607 11.1781 10.0002 11.4537 10.2324 11.6858C10.4645 11.918 10.7401 12.1021 11.0434 12.2278C11.3468 12.3534 11.6719 12.4181 12.0002 12.4181C12.6632 12.4181 13.2991 12.1547 13.768 11.6858C14.2368 11.217 14.5002 10.5811 14.5002 9.91804C14.5002 9.25499 14.2368 8.61909 13.768 8.15025C13.2991 7.6814 12.6632 7.418 12.0002 7.418Z" fill="#ED2F2F"/>
</svg>
