<svg width="370" height="450" viewBox="0 0 370 450" fill="none" xmlns="http://www.w3.org/2000/svg">
<path d="M36.3555 0C37.5501 6.77179 42.7533 11.8682 48.9902 11.8682C55.2271 11.868 60.4295 6.77169 61.624 0H75.0312C76.2258 6.77175 81.4281 11.8681 87.665 11.8682C93.902 11.8682 99.1051 6.77179 100.3 0H113.706C114.901 6.77162 120.103 11.8679 126.34 11.8682C132.577 11.8682 137.78 6.77179 138.975 0H152.387C153.581 6.77179 158.785 11.8682 165.021 11.8682C171.258 11.8681 176.461 6.77172 177.655 0H191.062C192.257 6.77173 197.459 11.8681 203.696 11.8682C209.933 11.8682 215.136 6.77179 216.331 0H229.737C230.932 6.77179 236.135 11.8682 242.372 11.8682C248.609 11.8679 253.811 6.77163 255.006 0H268.413C269.608 6.77179 274.81 11.8682 281.047 11.8682C287.284 11.8681 292.486 6.77176 293.681 0H307.088C308.282 6.77168 313.485 11.868 319.722 11.8682C325.959 11.8682 331.162 6.77179 332.356 0H345.763C346.957 6.77179 352.16 11.8682 358.397 11.8682C363.501 11.868 367.911 8.4554 370 3.50488V430.248C359.322 430.25 350.665 440.213 350.665 452.502C350.665 464.791 359.321 474.754 370 474.756V497.011H0V474.756L0.00292969 474.757C10.683 474.757 19.3408 464.793 19.3408 452.502C19.3406 440.211 10.6829 430.248 0.00292969 430.248H0V5.93262C2.35191 9.53669 6.09634 11.868 10.3145 11.8682C16.5514 11.8682 21.7545 6.77179 22.9492 0H36.3555Z" fill="white"/>
</svg>
