<svg width="16" height="16" viewBox="0 0 16 16" fill="none" xmlns="http://www.w3.org/2000/svg">
<g clip-path="url(#clip0_5697_702)">
<path opacity="0.5" d="M8.89103 6.98481C8.83058 6.83628 8.8316 6.66983 8.89387 6.52206C8.95614 6.37429 9.07457 6.25731 9.22309 6.19686C9.37161 6.1364 9.53806 6.13742 9.68583 6.19969C9.8336 6.26197 9.95058 6.38039 10.011 6.52891L10.4669 7.64891C10.5274 7.79743 10.5264 7.96389 10.4641 8.11166C10.4018 8.25943 10.2834 8.37641 10.1349 8.43686C9.98636 8.49732 9.8199 8.4963 9.67213 8.43402C9.52436 8.37175 9.40738 8.25333 9.34693 8.10481L8.89103 6.98481Z" stroke="#807D85" stroke-width="0.906925"/>
<path d="M10.2671 10.341L10.6876 10.1712L10.6871 10.1701L10.2671 10.341ZM7.98766 4.74101L8.40766 4.57005L8.4072 4.56893L7.98766 4.74101ZM11.1408 11.2942L10.6876 10.1712L9.84668 10.5109L10.2999 11.6339L11.1408 11.2942ZM10.7713 9.97262C10.8502 9.94048 10.9389 9.97879 10.9699 10.0549L11.8099 9.71303C11.5893 9.17094 10.9703 8.91242 10.4293 9.13262L10.7713 9.97262ZM10.4293 9.13262C9.88839 9.35281 9.62648 9.9699 9.84713 10.512L10.6871 10.1701C10.6561 10.0939 10.6923 10.0048 10.7713 9.97262L10.4293 9.13262ZM5.22413 4.39713L7.18973 3.59703L6.84781 2.75703L4.88221 3.55713L5.22413 4.39713ZM10.2167 11.8303L8.52937 12.5171L8.87129 13.3571L10.5586 12.6703L10.2167 11.8303ZM8.52937 12.5171C7.45921 12.9528 6.69771 13.2614 6.08945 13.4189C5.49308 13.5735 5.10982 13.5637 4.77517 13.4232L4.42444 14.2599C5.01494 14.5078 5.62374 14.4767 6.3172 14.2976C6.99877 14.1213 7.82488 13.7837 8.87208 13.3575L8.52937 12.5171ZM4.88221 3.55713C3.83501 3.98339 3.00799 4.31872 2.39708 4.66857C1.77565 5.02466 1.31877 5.42736 1.06927 6.0172L1.90496 6.3703C2.04575 6.03621 2.31377 5.7613 2.84804 5.4557C3.39338 5.14364 4.15397 4.83274 5.22413 4.39713L4.88221 3.55713ZM12.9108 6.001C12.8043 5.73948 12.855 5.45186 13.0222 5.24347L12.3136 4.67672C12.1285 4.90769 12.0084 5.1839 11.9657 5.47681C11.923 5.76972 11.9593 6.06872 12.0708 6.34292L12.9108 6.001ZM13.32 3.84865C12.8476 2.81632 12.3852 2.08147 11.5749 1.7409L11.2234 2.57725C11.6862 2.77138 12.0282 3.20404 12.4949 4.22562L13.32 3.84865ZM8.87687 2.92269C10.1149 2.4553 10.7181 2.36384 11.2245 2.57679L11.576 1.74045C10.6997 1.37255 9.77132 1.61598 8.55623 2.07402L8.87687 2.92269ZM7.18973 3.59703C7.15264 3.61196 7.1117 3.61135 7.07489 3.59575C7.03807 3.58015 7.00894 3.5506 6.99387 3.51356L7.83296 3.1694C7.75695 2.98438 7.6107 2.83703 7.42625 2.75965C7.2418 2.68227 7.0342 2.68116 6.84893 2.75657L7.18973 3.59703Z" fill="#807D85"/>
</g>
<defs>
<clipPath id="clip0_5697_702">
<rect width="16" height="16" fill="white"/>
</clipPath>
</defs>
</svg>
