<svg width="16" height="16" viewBox="0 0 16 16" fill="none" xmlns="http://www.w3.org/2000/svg">
<g clip-path="url(#clip0_5697_362)">
<path d="M16.0001 8.50448C16.0001 8.70339 15.9211 8.89416 15.7805 9.03481C15.6398 9.17546 15.4491 9.25448 15.2501 9.25448H14.7501V9.75448C14.7501 9.95339 14.6711 10.1442 14.5305 10.2848C14.3898 10.4255 14.1991 10.5045 14.0001 10.5045C13.8012 10.5045 13.6105 10.4255 13.4698 10.2848C13.3292 10.1442 13.2501 9.95339 13.2501 9.75448V9.25448H12.7501C12.5512 9.25448 12.3605 9.17546 12.2198 9.03481C12.0792 8.89416 12.0001 8.70339 12.0001 8.50448C12.0001 8.30557 12.0792 8.1148 12.2198 7.97415C12.3605 7.8335 12.5512 7.75448 12.7501 7.75448H13.2501V7.25448C13.2501 7.05557 13.3292 6.8648 13.4698 6.72415C13.6105 6.5835 13.8012 6.50448 14.0001 6.50448C14.1991 6.50448 14.3898 6.5835 14.5305 6.72415C14.6711 6.8648 14.7501 7.05557 14.7501 7.25448V7.75448H15.2501C15.4491 7.75448 15.6398 7.8335 15.7805 7.97415C15.9211 8.1148 16.0001 8.30557 16.0001 8.50448ZM12.5745 12.022C12.7025 12.1743 12.7647 12.3712 12.7475 12.5694C12.7302 12.7676 12.635 12.9509 12.4826 13.0789C12.3303 13.2068 12.1334 13.269 11.9352 13.2518C11.737 13.2346 11.5537 13.1393 11.4258 12.987C10.5701 11.9682 9.06264 10.7545 6.75014 10.7545C4.94452 10.7545 3.28389 11.547 2.07452 12.987C1.94655 13.1393 1.76331 13.2346 1.56511 13.2518C1.36691 13.269 1.16998 13.2068 1.01764 13.0789C0.86531 12.9509 0.77005 12.7676 0.75282 12.5694C0.735591 12.3712 0.797802 12.1743 0.925769 12.022C1.7406 11.0379 2.78595 10.2703 3.96889 9.78761C3.23329 9.20928 2.69626 8.41602 2.43255 7.51822C2.16884 6.62043 2.19156 5.66275 2.49754 4.77847C2.80353 3.89419 3.37757 3.12729 4.13977 2.58449C4.90197 2.0417 5.81442 1.75 6.75014 1.75C7.68587 1.75 8.59832 2.0417 9.36052 2.58449C10.1227 3.12729 10.6968 3.89419 11.0027 4.77847C11.3087 5.66275 11.3315 6.62043 11.0677 7.51822C10.804 8.41602 10.267 9.20928 9.53139 9.78761C10.7144 10.2702 11.7598 11.0377 12.5745 12.022ZM6.75014 9.25448C7.34349 9.25448 7.92351 9.07853 8.41685 8.74889C8.9102 8.41924 9.29472 7.95071 9.52178 7.40253C9.74885 6.85435 9.80826 6.25115 9.6925 5.66921C9.57674 5.08727 9.29102 4.55272 8.87146 4.13316C8.45191 3.7136 7.91736 3.42788 7.33541 3.31212C6.75347 3.19637 6.15027 3.25578 5.60209 3.48284C5.05392 3.7099 4.58538 4.09442 4.25574 4.58777C3.92609 5.08112 3.75014 5.66114 3.75014 6.25448C3.75097 7.04988 4.06731 7.81246 4.62974 8.37489C5.19217 8.93732 5.95475 9.25365 6.75014 9.25448Z" fill="black"/>
</g>
<defs>
<clipPath id="clip0_5697_362">
<rect width="16" height="16" fill="white"/>
</clipPath>
</defs>
</svg>
