<svg width="101" height="31" viewBox="0 0 101 31" fill="none" xmlns="http://www.w3.org/2000/svg">
<g clip-path="url(#clip0_6079_4964)">
<path d="M17.1309 20.2974H0.49585L1.68387 15.1258L10.2108 6.68055H3.62543L5.1596 0.00165176H21.7947L20.6266 5.08597L12.0057 13.5598H18.6794L17.1324 20.296L17.1309 20.2974Z" fill="black"/>
<path d="M36.1432 5.96342H28.0735L27.7787 7.24881H33.1732L31.904 12.7711H26.5095L26.1904 14.1596H34.29L32.8797 20.296H18.1064L22.7688 0.00165176H37.5136L36.1447 5.96342H36.1432Z" fill="black"/>
<path d="M49.7628 14.839L52.579 20.304H44.233L42.3199 16.6067H41.3755L40.5265 20.304H33.8528L38.5137 0.00826263H47.9067C50.3397 0.00826263 52.1759 0.831315 53.418 2.47742C54.72 4.15359 55.1402 5.99436 54.6787 7.99975C54.1303 10.3859 52.8198 12.4228 50.7457 14.1075C50.4238 14.3709 50.0961 14.6142 49.7642 14.8375L49.7628 14.839ZM42.884 10.0323H45.6033C46.166 10.0323 46.6831 9.82764 47.1546 9.41826C47.6389 9.03894 47.9466 8.56658 48.0762 8.00118C48.2087 7.42719 48.119 6.9491 47.8084 6.56978C47.5178 6.19046 47.0905 6.00009 46.5292 6.00009H43.8099L42.884 10.0323Z" fill="black"/>
<path d="M5.0599 30.462C4.97734 30.462 4.90373 30.4551 4.83907 30.4413C4.7744 30.4288 4.72968 30.4164 4.70492 30.4039L4.82875 29.9726C4.94707 30.003 5.05164 30.014 5.14245 30.0058C5.23326 29.9975 5.31375 29.9567 5.38392 29.8834C5.45546 29.8115 5.52082 29.6947 5.57998 29.5329L5.67079 29.2841L4.49854 26.082H5.02688L5.90194 28.6204H5.93496L6.81003 26.082H7.33837L5.99275 29.732C5.93221 29.8965 5.85722 30.0327 5.76779 30.1406C5.67836 30.2498 5.57448 30.3307 5.45615 30.3832C5.3392 30.4357 5.20712 30.462 5.0599 30.462Z" fill="black"/>
<path d="M1.03125 29.2666V25.0194H2.50895C2.80339 25.0194 3.04624 25.0705 3.23749 25.1728C3.42873 25.2738 3.57114 25.41 3.6647 25.5814C3.75826 25.7514 3.80504 25.9402 3.80504 26.1476C3.80504 26.3301 3.77271 26.4808 3.70804 26.5997C3.64475 26.7186 3.56082 26.8126 3.45625 26.8817C3.35306 26.9508 3.24093 27.002 3.11985 27.0352V27.0766C3.24918 27.0849 3.3792 27.1306 3.50991 27.2135C3.64062 27.2965 3.75 27.4154 3.83806 27.5702C3.92612 27.7251 3.97015 27.9145 3.97015 28.1385C3.97015 28.3514 3.92199 28.5429 3.82568 28.7129C3.72937 28.883 3.57733 29.0178 3.36957 29.1173C3.16181 29.2169 2.89145 29.2666 2.55849 29.2666H1.03125ZM1.54308 28.8104H2.55849C2.89283 28.8104 3.13017 28.7454 3.27051 28.6154C3.41222 28.4841 3.48308 28.3251 3.48308 28.1385C3.48308 27.9947 3.44662 27.8619 3.3737 27.7403C3.30078 27.6172 3.1969 27.5191 3.06206 27.4458C2.92722 27.3711 2.76762 27.3338 2.58325 27.3338H1.54308V28.8104ZM1.54308 26.8858H2.49244C2.64654 26.8858 2.78551 26.8554 2.90934 26.7946C3.03454 26.7338 3.13361 26.648 3.20653 26.5374C3.28083 26.4268 3.31798 26.2969 3.31798 26.1476C3.31798 25.9609 3.25331 25.8026 3.12397 25.6726C2.99464 25.5413 2.78963 25.4756 2.50895 25.4756H1.54308V26.8858Z" fill="black"/>
<path d="M54.4525 24.0559H55.2848L57.5352 29.2309H56.5845L56.0665 27.9899H53.6471L53.1212 29.2309H52.2004L54.4525 24.0559ZM55.738 27.1901L54.8552 25.135L53.9787 27.1901H55.738Z" fill="black"/>
<path d="M47.0903 24.0922H47.981V26.2283H50.4337V24.0922H51.3244V29.2308H50.4337V27.0646H47.981V29.2308H47.0903V24.0922Z" fill="black"/>
<path d="M15.6037 25.144C15.948 25.5931 16.2354 26.0978 16.4565 26.6421V23.7634H14.0244C14.6087 24.0823 15.1441 24.5457 15.6037 25.144Z" fill="black"/>
<path d="M12.0986 24.0708C11.6485 24.0708 11.2158 24.1676 10.8083 24.3469V29.4394H16.2079C16.1653 26.4702 14.338 24.0708 12.0986 24.0708Z" fill="black"/>
<path d="M19.6831 28.5627L22.7011 24.8937H19.7794V24.0939H23.8698V24.7604L20.8518 28.431H23.8698V29.2308H19.6831V28.5627Z" fill="black"/>
<path d="M24.9946 24.0922H28.7786V24.9079H25.8853V26.2299H28.4501V27.0456H25.8853V28.4183H28.8149V29.234H24.9946V24.0954V24.0922Z" fill="black"/>
<path d="M29.8865 24.0922H32.167C32.4891 24.0922 32.7734 24.1383 33.0229 24.2287C33.2709 24.3192 33.4778 24.4461 33.6436 24.6064C33.7794 24.7477 33.8836 24.9127 33.9579 25.0984C34.0321 25.284 34.0668 25.4888 34.0668 25.7141V25.7284C34.0668 25.9395 34.0352 26.1283 33.9752 26.2965C33.9152 26.4663 33.8299 26.6155 33.7241 26.744C33.6167 26.8742 33.4888 26.9837 33.3404 27.0741C33.1919 27.1646 33.0277 27.2344 32.846 27.2836L34.2263 29.2292H33.1666L31.9064 27.4375H30.7803V29.2292H29.8896V24.0922H29.8865ZM32.0975 26.6393C32.4196 26.6393 32.6771 26.5615 32.8666 26.4076C33.0561 26.2537 33.1524 26.0426 33.1524 25.776V25.7617C33.1524 25.4824 33.0592 25.2682 32.8745 25.1238C32.6897 24.9794 32.4275 24.9064 32.0912 24.9064H30.7772V26.6377H32.0975V26.6393Z" fill="black"/>
<path d="M37.6094 29.3178C37.2146 29.3178 36.8545 29.2495 36.5292 29.1083C36.2023 28.9686 35.9228 28.7798 35.689 28.5401C35.4553 28.3005 35.2721 28.0212 35.141 27.7007C35.0099 27.3801 34.9436 27.0389 34.9436 26.6771V26.6628C34.9436 26.301 35.0084 25.9598 35.141 25.6392C35.2721 25.3186 35.4584 25.0378 35.6953 24.795C35.9338 24.5537 36.2165 24.3617 36.5418 24.2189C36.8672 24.0777 37.2288 24.0047 37.6221 24.0047C38.0153 24.0047 38.377 24.0729 38.7023 24.2141C39.0276 24.3538 39.3087 24.5426 39.5425 24.7823C39.7762 25.0219 39.9594 25.3012 40.0905 25.6218C40.2216 25.9423 40.2879 26.2835 40.2879 26.6453V26.6596C40.2879 27.0214 40.2231 27.3626 40.0905 27.6832C39.9594 28.0038 39.773 28.2846 39.5361 28.5275C39.2977 28.7687 39.015 28.9607 38.6897 29.1035C38.3627 29.2463 38.0027 29.3178 37.6094 29.3178ZM37.6221 28.4894C37.8732 28.4894 38.1069 28.4418 38.3169 28.3465C38.5286 28.2513 38.707 28.1212 38.8586 27.9577C39.0087 27.7927 39.1271 27.6007 39.2124 27.3817C39.2977 27.1611 39.3403 26.9262 39.3403 26.6771V26.6628C39.3403 26.4136 39.2977 26.1756 39.2124 25.955C39.1271 25.7328 39.0087 25.5392 38.8555 25.3742C38.7039 25.2091 38.5207 25.0806 38.3059 24.9822C38.0911 24.8838 37.859 24.8362 37.6078 24.8362C37.3567 24.8362 37.123 24.8838 36.913 24.979C36.7013 25.0743 36.5229 25.2044 36.3713 25.3678C36.2212 25.5329 36.1028 25.7249 36.0175 25.9439C35.9322 26.1645 35.8896 26.3994 35.8896 26.6485V26.6628C35.8896 26.9119 35.9322 27.15 36.0175 27.3706C36.1028 27.5943 36.2212 27.7863 36.3744 27.9514C36.5276 28.1164 36.7092 28.245 36.924 28.3434C37.1388 28.4402 37.371 28.4894 37.6221 28.4894Z" fill="black"/>
<path d="M41.3755 24.0922H43.2817C43.6812 24.0922 44.0476 24.1573 44.3809 24.2859C44.7141 24.416 45.0015 24.5953 45.2431 24.8254C45.4832 25.0555 45.6695 25.3269 45.8022 25.6379C45.9333 25.949 45.9996 26.2854 45.9996 26.6472V26.6615C45.9996 27.0233 45.9349 27.3614 45.8022 27.674C45.6711 27.9882 45.4848 28.2596 45.2431 28.4897C45.0031 28.7198 44.7157 28.9007 44.3809 29.034C44.0476 29.1657 43.6812 29.2324 43.2817 29.2324H41.3755V24.0938V24.0922ZM43.2754 28.4151C43.5438 28.4151 43.787 28.3722 44.0066 28.2865C44.2261 28.2009 44.4124 28.0802 44.5656 27.9247C44.7188 27.7708 44.8388 27.5867 44.9241 27.3725C45.0094 27.1582 45.0521 26.9265 45.0521 26.6758V26.6615C45.0521 26.4124 45.0094 26.1775 44.9241 25.9617C44.8388 25.7443 44.7204 25.5602 44.5656 25.4047C44.4124 25.2507 44.2261 25.1285 44.0066 25.0397C43.787 24.9508 43.5438 24.9064 43.2754 24.9064H42.2678V28.4151H43.2754Z" fill="black"/>
<path d="M70.8282 12.1021C70.3068 14.3738 69.0732 16.2918 67.1288 17.8563C65.1644 19.4667 63.0619 20.2725 60.8198 20.2725C58.5777 20.2725 56.9082 19.4681 55.6489 17.8563C54.4324 16.2918 54.0848 14.3723 54.6076 12.1021L55.5093 8.1801C56.0307 5.90848 57.26 3.98611 59.1987 2.41158C61.1944 0.809844 63.287 0.00826263 65.475 0.00826263C67.663 0.00826263 69.4507 0.808413 70.6772 2.41015C71.9008 3.98468 72.2512 5.90704 71.7285 8.17867L70.8268 12.1007L70.8282 12.1021ZM65.5163 8.1801C65.6388 7.64619 65.559 7.19387 65.2741 6.82314C64.9907 6.45241 64.5776 6.26632 64.0377 6.26632C63.4978 6.26632 63.0277 6.45241 62.5733 6.82314C62.1189 7.19387 61.8297 7.64619 61.7072 8.1801L60.8055 12.1021C60.6845 12.6274 60.7671 13.0755 61.0505 13.4462C61.334 13.8169 61.7371 14.003 62.2599 14.003C62.7827 14.003 63.297 13.8184 63.7528 13.4462C64.2072 13.0755 64.4949 12.6274 64.6146 12.1021L65.5163 8.1801Z" fill="black"/>
<path d="M89.8358 0L87.0481 11.9135L91.6036 11.8033L89.135 20.2943L100.693 7.59928L95.2132 7.7324L99.951 0H89.8358Z" fill="#FABF14"/>
<path d="M100.692 7.59886L89.1338 20.2939L97.628 7.67329L100.692 7.59886Z" fill="#E8A524"/>
<path d="M99.9506 0L95.113 7.88413L97.9777 0H99.9506Z" fill="#E8A524"/>
<path d="M75.0726 0.00826263H84.3602L79.6993 20.2969H73.2749L76.4558 6.44954H73.594L75.0726 0.00826263Z" fill="black"/>
<path d="M84.3579 0.00826263H84.3665H84.3779L79.8096 20.2969H79.697L82.0374 3.24751L83.6713 0.240149L84.3579 0.00826263Z" fill="black"/>
<path d="M90.4608 6.57319L90.2514 7.43203L89.0776 7.39767L89.2942 6.51307L90.4608 6.57319Z" fill="#FFE57D"/>
<path d="M89.4675 5.79377L90.6997 0.755259L91.8721 0.791043L90.6413 5.82813L89.4675 5.79377Z" fill="#FFE57D"/>
<path d="M90.6999 0.755259H91.8822L91.8523 0.875496L91.0189 0.971399L90.7768 0.842574L90.697 0.762415" fill="#FFE57D"/>
<path d="M90.6441 5.82887H89.4575L89.5074 5.64709L90.4803 5.65997L90.6441 5.82887Z" fill="#FFE57D"/>
<path d="M89.2925 6.51307H90.4762L90.4249 6.71347L89.6671 6.9568L89.2925 6.51307Z" fill="#FFE57D"/>
<path d="M90.2488 7.43186H89.0708L89.1021 7.30303" fill="#FFE57D"/>
</g>
<defs>
<clipPath id="clip0_6079_4964">
<rect width="100.692" height="30.4615" fill="white"/>
</clipPath>
</defs>
</svg>
