<?xml version="1.0" encoding="UTF-8"?>
<svg xmlns="http://www.w3.org/2000/svg" viewBox="300 338 1325 278">
  <defs>
    <style>
      .w { fill: #fff; }
      .g1 { fill: #ffe57d; }
      .g2 { fill: #e8a524; }
      .g3 { fill: #fabf14; }
    </style>
  </defs>
  <!-- Z -->
  <polygon class="w" points="439.87 532.73 566.3 392.4 577.66 343.19 367.2 343.19 348.92 422.35 442.95 422.35 316.52 562.68 305.16 611.89 517.53 611.89 535.8 532.73 439.87 532.73"/>
  <!-- E -->
  <polygon class="w" points="627.55 534.26 632.03 514.83 702.29 514.83 719.69 439.49 649.43 439.49 653.74 420.83 780.48 420.83 798.4 343.19 588.7 343.19 526.67 611.89 738.27 611.89 756.19 534.26 627.55 534.26"/>
  <!-- R -->
  <path class="w" d="M959.67,509.71c13.52-7.01,25.65-16.06,36.15-26.97,13.33-13.85,22.1-29.56,26.05-46.69,2.88-12.49,3.46-24.48,1.71-35.65-1.78-11.34-6.14-21.4-12.96-29.9-6.79-8.46-16.36-15.22-28.43-20.09-11.91-4.79-26.56-7.22-43.54-7.22h-128.64l-62.03,268.69h82.96l19.95-86.4h25.02l26.87,86.4h92.44l-35.54-102.18h-.01ZM926.08,452.31c-6.51,5.72-13.81,8.48-21.5,8.48h-37.68l12.82-55.63h37.68c7.89,0,13.81,2.56,17.76,7.89,4.34,5.33,5.52,12.03,3.75,19.73-1.78,7.69-6.12,14.2-12.82,19.53h-.01Z"/>
  <!-- O -->
  <path class="w" d="M1159.94,343.45h0c-59.13,0-118.12,47.93-131.77,107.06l-12.54,54.33c-13.65,59.13,23.22,107.06,82.34,107.06h0c59.13,0,118.12-47.93,131.77-107.06l12.54-54.33c13.65-59.13-23.22-107.06-82.34-107.06h0ZM1136.8,521.55c-6.07,4.93-12.89,7.39-19.91,7.39s-12.32-2.46-16.11-7.39-4.74-10.81-3.22-17.82l11.94-51.94c1.71-7.01,5.5-13.08,11.56-18.01,6.07-4.93,12.32-7.39,19.53-7.39s12.7,2.46,16.49,7.39c3.79,4.93,4.93,11,3.22,18.01l-11.94,51.94c-1.71,7.01-5.5,12.89-11.56,17.82Z"/>
  <!-- 1 -->
  <polygon class="w" points="1280.6 343.45 1263.22 418.72 1288.32 418.72 1243.72 611.89 1324.7 611.89 1386.68 343.45 1280.6 343.45"/>
  <!-- Lightning bolt -->
  <path class="g3" d="M1471.39,343.45l-36.92,157.51,60.58-1.33-32.94,112.26,153.72-167.92-72.88,1.7,63.04-102.23h-134.6Z"/>
  <path class="g2" d="M1615.84,443.97l-153.72,167.92,112.83-166.97,40.89-.95Z"/>
  <path class="g2" d="M1605.99,343.45l-64.37,104.31,38.05-104.31h26.32Z"/>
  <path class="g1" d="M1479.72,430.34l-2.65,11.36-15.71-.38,2.84-11.74,15.52.76Z"/>
  <path class="g1" d="M1466.66,420.12l16.28-66.64,15.71.38-16.47,66.64-15.52-.38Z"/>
  <path class="g1" d="M1482.19,420.5h-15.71l.57-2.27h13.06l2.08,2.27Z"/>
  <path class="g1" d="M1464.2,429.58h15.9l-.76,2.65-10.03,3.22-5.11-5.87Z"/>
  <path class="g1" d="M1476.88,441.7h-15.52l.38-1.7"/>
</svg>
