<?xml version="1.0" encoding="UTF-8"?>
<svg xmlns="http://www.w3.org/2000/svg" viewBox="1428 338 193 278">
  <path fill="#fabf14" d="M1471.39,343.45l-36.92,157.51,60.58-1.33-32.94,112.26,153.72-167.92-72.88,1.7,63.04-102.23h-134.6Z"/>
  <path fill="#e8a524" d="M1615.84,443.97l-153.72,167.92,112.83-166.97,40.89-.95Z"/>
  <path fill="#e8a524" d="M1605.99,343.45l-64.37,104.31,38.05-104.31h26.32Z"/>
  <path fill="#ffe57d" d="M1479.72,430.34l-2.65,11.36-15.71-.38,2.84-11.74,15.52.76Z"/>
  <path fill="#ffe57d" d="M1466.66,420.12l16.28-66.64,15.71.38-16.47,66.64-15.52-.38Z"/>
  <path fill="#ffe57d" d="M1482.19,420.5h-15.71l.57-2.27h13.06l2.08,2.27Z"/>
  <path fill="#ffe57d" d="M1464.2,429.58h15.9l-.76,2.65-10.03,3.22-5.11-5.87Z"/>
  <path fill="#ffe57d" d="M1476.88,441.7h-15.52l.38-1.7"/>
</svg>
