<svg width="32" height="32" viewBox="0 0 32 32" fill="none" xmlns="http://www.w3.org/2000/svg">
<path d="M27.5197 6.08292C27.4071 6.07132 27.2935 6.07132 27.1809 6.08292H4.04199C3.89369 6.08521 3.74637 6.10745 3.604 6.14903L15.5453 18.0408L27.5197 6.08292Z" fill="#87B7FF"/>
<path d="M28.71 7.23242L16.6778 19.2151C16.3681 19.5229 15.9492 19.6957 15.5126 19.6957C15.076 19.6957 14.6571 19.5229 14.3474 19.2151L2.42259 7.32332C2.38593 7.45806 2.3665 7.5969 2.36475 7.73652V24.2643C2.36475 24.7026 2.53888 25.123 2.84883 25.433C3.15879 25.7429 3.57918 25.9171 4.01752 25.9171H27.1564C27.5948 25.9171 28.0151 25.7429 28.3251 25.433C28.6351 25.123 28.8092 24.7026 28.8092 24.2643V7.73652C28.8026 7.56435 28.7692 7.39426 28.71 7.23242ZM5.14968 24.2643H4.001V23.0826L10.0088 17.1243L11.1741 18.2895L5.14968 24.2643ZM27.1399 24.2643H25.9829L19.9586 18.2895L21.1238 17.1243L27.1316 23.0826L27.1399 24.2643Z" fill="#87B7FF"/>
</svg>
