<svg width="28" height="28" viewBox="0 0 28 28" fill="none" xmlns="http://www.w3.org/2000/svg">
<g clip-path="url(#clip0_6122_7600)">
<path d="M12.7508 22.341C12.6657 22.3272 12.5806 22.3065 12.4956 22.279C10.5815 21.6587 9.05733 20.5111 7.92307 18.8361C6.78881 17.1612 6.22168 15.3591 6.22168 13.43V9.52241C6.22168 9.17783 6.32461 8.8677 6.53048 8.59203C6.73635 8.31637 7.00205 8.11651 7.32758 7.99246L12.4317 6.1317C12.6302 6.06278 12.8287 6.02832 13.0272 6.02832C13.2257 6.02832 13.4242 6.06278 13.6227 6.1317L18.7269 7.99246C19.053 8.11651 19.319 8.31637 19.5248 8.59203C19.7307 8.8677 19.8334 9.17783 19.8328 9.52241V13.43C19.8328 15.3597 19.2657 17.162 18.1314 18.837C16.9971 20.5119 15.473 21.6593 13.5589 22.279C13.4738 22.3065 13.3888 22.3272 13.3037 22.341C13.2186 22.3548 13.1265 22.3617 13.0272 22.3617C12.928 22.3617 12.8358 22.3548 12.7508 22.341Z" fill="#D5F845" fill-opacity="0.5"/>
<g filter="url(#filter0_d_6122_7600)">
<path d="M15.4724 19.6173C15.3874 19.6036 15.3023 19.5829 15.2172 19.5553C13.3032 18.9351 11.779 17.7875 10.6447 16.1125C9.51049 14.4375 8.94336 12.6355 8.94336 10.7064V6.79878C8.94336 6.4542 9.04629 6.14407 9.25216 5.8684C9.45803 5.59273 9.72373 5.39287 10.0493 5.26882L15.1534 3.40806C15.3519 3.33915 15.5504 3.30469 15.7489 3.30469C15.9474 3.30469 16.1459 3.33915 16.3444 3.40806L21.4486 5.26882C21.7747 5.39287 22.0407 5.59273 22.2465 5.8684C22.4524 6.14407 22.555 6.4542 22.5545 6.79878V10.7064C22.5545 12.6361 21.9873 14.4384 20.8531 16.1133C19.7188 17.7883 18.1947 18.9356 16.2806 19.5553C16.1955 19.5829 16.1105 19.6036 16.0254 19.6173C15.9403 19.6311 15.8482 19.638 15.7489 19.638C15.6497 19.638 15.5575 19.6311 15.4724 19.6173Z" fill="#D5F845"/>
</g>
</g>
<defs>
<filter id="filter0_d_6122_7600" x="3.49891" y="3.30469" width="24.5002" height="27.2224" filterUnits="userSpaceOnUse" color-interpolation-filters="sRGB">
<feFlood flood-opacity="0" result="BackgroundImageFix"/>
<feColorMatrix in="SourceAlpha" type="matrix" values="0 0 0 0 0 0 0 0 0 0 0 0 0 0 0 0 0 0 127 0" result="hardAlpha"/>
<feOffset dy="5.44445"/>
<feGaussianBlur stdDeviation="2.72222"/>
<feComposite in2="hardAlpha" operator="out"/>
<feColorMatrix type="matrix" values="0 0 0 0 0 0 0 0 0 0 0 0 0 0 0 0 0 0 0.25 0"/>
<feBlend mode="normal" in2="BackgroundImageFix" result="effect1_dropShadow_6122_7600"/>
<feBlend mode="normal" in="SourceGraphic" in2="effect1_dropShadow_6122_7600" result="shape"/>
</filter>
<clipPath id="clip0_6122_7600">
<rect width="28" height="28" fill="white"/>
</clipPath>
</defs>
</svg>
