<svg width="24" height="24" viewBox="0 0 24 24" fill="none" xmlns="http://www.w3.org/2000/svg">
<path d="M12.3173 16.872C12.4021 16.7873 12.4444 16.6818 12.4444 16.5556V12.5556C12.4444 12.4293 12.4018 12.3239 12.3164 12.2391C12.2311 12.1544 12.1253 12.1117 11.9991 12.1111C11.8729 12.1105 11.7674 12.1532 11.6827 12.2391C11.5979 12.325 11.5556 12.4305 11.5556 12.5556V16.5556C11.5556 16.6818 11.5982 16.7873 11.6836 16.872C11.7689 16.9567 11.8747 16.9994 12.0009 17C12.1271 17.0006 12.2326 16.9579 12.3173 16.872ZM12.3858 10.6889C12.4936 10.584 12.5476 10.4542 12.5476 10.2996C12.5476 10.1449 12.4951 10.0148 12.3902 9.90933C12.2853 9.80385 12.1553 9.75141 12 9.752C11.8447 9.75259 11.715 9.80504 11.6107 9.90933C11.5064 10.0136 11.4539 10.1437 11.4533 10.2996C11.4527 10.4554 11.5064 10.5852 11.6142 10.6889C11.7221 10.7926 11.8507 10.845 12 10.8462C12.1493 10.8474 12.2779 10.795 12.3858 10.6889ZM12.0036 21C10.8972 21 9.85689 20.7902 8.88267 20.3707C7.90904 19.9505 7.06193 19.3804 6.34133 18.6604C5.62074 17.9404 5.05037 17.0942 4.63022 16.1218C4.21007 15.1493 4 14.1096 4 13.0027C4 11.8957 4.21007 10.8557 4.63022 9.88267C5.04978 8.90904 5.61896 8.06193 6.33778 7.34133C7.05659 6.62074 7.90311 6.05037 8.87733 5.63022C9.85156 5.21007 10.8916 5 11.9973 5C13.1031 5 14.1431 5.21007 15.1173 5.63022C16.091 6.04978 16.9381 6.61926 17.6587 7.33867C18.3793 8.05807 18.9496 8.90459 19.3698 9.87822C19.7899 10.8519 20 11.8916 20 12.9973C20 14.1031 19.7902 15.1431 19.3707 16.1173C18.9511 17.0916 18.381 17.9387 17.6604 18.6587C16.9399 19.3787 16.0936 19.949 15.1218 20.3698C14.1499 20.7905 13.1111 21.0006 12.0036 21ZM12 20.1111C13.9852 20.1111 15.6667 19.4222 17.0444 18.0444C18.4222 16.6667 19.1111 14.9852 19.1111 13C19.1111 11.0148 18.4222 9.33333 17.0444 7.95556C15.6667 6.57778 13.9852 5.88889 12 5.88889C10.0148 5.88889 8.33333 6.57778 6.95556 7.95556C5.57778 9.33333 4.88889 11.0148 4.88889 13C4.88889 14.9852 5.57778 16.6667 6.95556 18.0444C8.33333 19.4222 10.0148 20.1111 12 20.1111Z" fill="#6B7280"/>
</svg>
