<svg width="22" height="22" viewBox="0 0 22 22" fill="none" xmlns="http://www.w3.org/2000/svg">
<path d="M3 7.78905C3.08758 6.02063 3.34947 4.91747 4.13432 4.13432C4.91747 3.34947 6.02063 3.08758 7.78905 3M19 7.78905C18.9124 6.02063 18.6505 4.91747 17.8657 4.13432C17.0825 3.34947 15.9794 3.08758 14.2109 3M14.2109 19C15.9794 18.9124 17.0825 18.6505 17.8657 17.8657C18.6505 17.0825 18.9124 15.9794 19 14.2109M7.78905 19C6.02063 18.9124 4.91747 18.6505 4.13432 17.8657C3.34947 17.0825 3.08758 15.9794 3 14.2109M15.6316 15.2105L15.4615 14.4956C15.3923 14.2055 15.2473 13.9389 15.0414 13.7232C14.8354 13.5075 14.5759 13.3503 14.2893 13.2678L12.2632 12.6834V11.448C13.0177 10.9385 13.5263 9.98611 13.5263 8.89474C13.5263 7.26695 12.3945 5.94737 11 5.94737C9.60463 5.94737 8.47368 7.26695 8.47368 8.89474C8.47368 9.98611 8.98147 10.9385 9.73684 11.448V12.6834L7.72337 13.2728C7.44535 13.3542 7.19303 13.506 6.99078 13.7134C6.78854 13.9208 6.64321 14.1769 6.56884 14.4568L6.36842 15.2105" stroke="#8C8C8D" stroke-width="1.42857" stroke-linecap="round" stroke-linejoin="round"/>
</svg>
