<svg width="24" height="24" viewBox="0 0 24 24" fill="none" xmlns="http://www.w3.org/2000/svg">
<path d="M14.125 12.001C14.125 12.5646 13.9011 13.1051 13.5026 13.5036C13.1041 13.9021 12.5636 14.126 12 14.126C11.4364 14.126 10.8959 13.9021 10.4974 13.5036C10.0989 13.1051 9.875 12.5646 9.875 12.001C9.875 11.4374 10.0989 10.8969 10.4974 10.4984C10.8959 10.0999 11.4364 9.87598 12 9.87598C12.5636 9.87598 13.1041 10.0999 13.5026 10.4984C13.9011 10.8969 14.125 11.4374 14.125 12.001Z" stroke="#8C8C8D" stroke-width="0.849999" stroke-linecap="round" stroke-linejoin="round"/>
<path d="M15.4 6.05065C17.508 6.05065 18.9615 6.37705 19.763 6.62525C20.2246 6.76805 20.5 7.2058 20.5 7.6886V15.9803C20.5 16.9281 19.4562 17.6412 18.5246 17.4653C17.7256 17.3148 16.6844 17.1933 15.4 17.1933C11.3625 17.1933 10.3935 18.7284 4.47326 17.4228C4.19599 17.3599 3.94844 17.2044 3.77149 16.9819C3.59454 16.7593 3.49878 16.4831 3.50001 16.1988V7.68265C3.50001 6.85305 4.28201 6.2487 5.09631 6.4102C10.4675 7.4761 11.5079 6.05065 15.4 6.05065Z" stroke="#8C8C8D" stroke-width="0.849999" stroke-linecap="round" stroke-linejoin="round"/>
<path d="M3.5 9.45058C5.15835 9.45058 6.64925 8.09484 6.83965 6.69149M17.525 6.47559C17.525 8.20958 19.0252 9.84923 20.5 9.84923M20.5 14.5506C18.885 14.5506 17.321 15.6641 17.1867 17.1839M6.9 17.5222C6.9 16.6204 6.54178 15.7556 5.90416 15.118C5.26654 14.4804 4.40174 14.1222 3.5 14.1222" stroke="#8C8C8D" stroke-width="0.849999" stroke-linecap="round" stroke-linejoin="round"/>
<path d="M2 21L22 4" stroke="#8C8C8D"/>
</svg>
