<svg width="24" height="24" viewBox="0 0 24 24" fill="none" xmlns="http://www.w3.org/2000/svg">
<path d="M13.5625 10.8551C13.5625 10.6479 13.6448 10.4491 13.7914 10.3026C13.9379 10.1561 14.1366 10.0737 14.3439 10.0737C14.5511 10.0737 14.7498 10.1561 14.8963 10.3026C15.0429 10.4491 15.1252 10.6479 15.1252 10.8551V12.4178C15.1252 12.625 15.0429 12.8238 14.8963 12.9703C14.7498 13.1168 14.5511 13.1991 14.3439 13.1991C14.1366 13.1991 13.9379 13.1168 13.7914 12.9703C13.6448 12.8238 13.5625 12.625 13.5625 12.4178V10.8551Z" stroke="#8C8C8D" stroke-width="1.17203"/>
<path d="M13.5736 15.5434L14.1597 15.5449V15.5434H13.5736ZM13.5736 7.72987H14.1597V7.72831L13.5736 7.72987ZM14.155 17.11L14.1597 15.5449L12.9876 15.5418L12.9829 17.1069L14.155 17.11ZM14.3566 15.348C14.4667 15.348 14.5542 15.4371 14.5542 15.5434H15.7263C15.7263 14.787 15.1113 14.176 14.3566 14.176V15.348ZM14.3566 14.176C13.6018 14.176 12.9876 14.787 12.9876 15.5434H14.1597C14.1597 15.4371 14.2464 15.348 14.3566 15.348V14.176ZM10.4334 5.97183H13.1759V4.79981H10.4334V5.97183ZM12.7876 17.3014H10.4334V18.4735H12.7876V17.3014ZM10.4334 17.3014C8.94023 17.3014 7.87837 17.2999 7.07358 17.192C6.28442 17.0866 5.83045 16.8881 5.49838 16.5568L4.67093 17.3874C5.25694 17.9718 6.00079 18.2312 6.91809 18.3547C7.81977 18.4758 8.97305 18.4742 10.4342 18.4742L10.4334 17.3014ZM10.4334 4.79981C8.97226 4.79981 7.81899 4.79824 6.91731 4.91935C6.00001 5.04281 5.25694 5.30221 4.67093 5.88666L5.49916 6.71646C5.83045 6.38517 6.2852 6.1867 7.07358 6.08122C7.87837 5.97339 8.94023 5.97183 10.4334 5.97183V4.79981ZM4.64514 10.7842C4.94674 10.9522 5.14755 11.2717 5.14755 11.6366H6.31958C6.31952 11.2542 6.21738 10.8787 6.02371 10.5489C5.83004 10.2191 5.55185 9.94696 5.21787 9.7606L4.64514 10.7842ZM4.78032 9.3082C4.84126 7.85801 5.03894 7.17433 5.49916 6.71646L4.67093 5.88666C3.86614 6.68989 3.6708 7.79238 3.60829 9.25976L4.78032 9.3082ZM5.14755 11.6366C5.14755 12.0015 4.94674 12.3211 4.64514 12.4899L5.21709 13.5134C5.55133 13.3271 5.82975 13.0549 6.02357 12.725C6.21739 12.395 6.31958 12.0193 6.31958 11.6366H5.14755ZM3.60907 14.0135C3.67158 15.4793 3.86692 16.5841 4.67093 17.3866L5.49916 16.5568C5.03894 16.0989 4.84126 15.4145 4.78032 13.9643L3.60907 14.0135ZM18.8524 11.6366C18.8524 11.2717 19.0533 10.9522 19.3549 10.7842L18.7829 9.7606C18.4488 9.94686 18.1704 10.2189 17.9766 10.5487C17.7828 10.8785 17.6806 11.2541 17.6804 11.6366H18.8524ZM20.3909 9.25976C20.3284 7.79394 20.1331 6.68911 19.3291 5.88666L18.5008 6.71646C18.9603 7.17433 19.1587 7.8588 19.2197 9.30898L20.3909 9.25976ZM19.3549 12.4899C19.2027 12.4053 19.0758 12.2816 18.9875 12.1316C18.8992 11.9816 18.8526 11.8107 18.8524 11.6366H17.6804C17.6804 12.4445 18.1266 13.1462 18.7829 13.5127L19.3549 12.4899ZM19.2197 13.9643C19.1587 15.4145 18.9611 16.0989 18.5008 16.5568L19.3291 17.3866C20.1339 16.5841 20.3292 15.4801 20.3909 14.0135L19.2197 13.9643ZM18.7829 13.5127C19.0048 13.6369 19.1501 13.7181 19.2478 13.7799C19.2963 13.8103 19.3181 13.8268 19.3244 13.8314C19.3353 13.8408 19.2955 13.8127 19.258 13.7455L20.2815 13.1728C20.2275 13.079 20.1561 12.9963 20.0714 12.929C20.0083 12.8779 19.942 12.8309 19.8729 12.7883C19.7424 12.7055 19.5635 12.6063 19.3549 12.4891L18.7829 13.5127ZM20.3909 14.0135C20.3964 13.8799 20.4026 13.7416 20.398 13.6259C20.3947 13.4678 20.3546 13.3126 20.2808 13.1728L19.258 13.7447C19.2189 13.6744 19.2244 13.6259 19.2267 13.6775C19.2278 13.6984 19.2278 13.7333 19.2267 13.7822L19.2197 13.9643L20.3909 14.0135ZM19.3549 10.7842C19.5635 10.667 19.7424 10.5677 19.8729 10.4849C19.9414 10.4415 20.0077 10.3946 20.0714 10.3443C20.1559 10.2769 20.2269 10.1942 20.2808 10.1005L19.258 9.52854C19.2955 9.46057 19.3353 9.43244 19.3236 9.44181C19.2994 9.46047 19.2741 9.47769 19.2478 9.49338C19.1501 9.55589 19.0056 9.63637 18.7829 9.7606L19.3549 10.7842ZM19.2197 9.30898L19.2267 9.49026C19.2278 9.53922 19.2278 9.57412 19.2267 9.59496C19.2244 9.64653 19.2189 9.59808 19.258 9.52776L20.2815 10.0997C20.3551 9.95977 20.3949 9.80459 20.398 9.64653C20.4007 9.51729 20.3981 9.388 20.3901 9.25898L19.2197 9.30898ZM4.64514 12.4891C4.43652 12.6063 4.25759 12.7047 4.12711 12.7876C4.05798 12.8301 3.99168 12.8771 3.92864 12.9282C3.84414 12.9956 3.77309 13.0791 3.71924 13.1728L4.74203 13.7439C4.70453 13.8119 4.66468 13.84 4.67562 13.8307C4.68265 13.8252 4.70374 13.8096 4.75219 13.7791C4.84986 13.7166 4.99441 13.6361 5.21709 13.5119L4.64514 12.4891ZM4.78032 13.9635L4.77328 13.7814C4.77211 13.7465 4.77211 13.7116 4.77328 13.6767C4.77563 13.6252 4.7811 13.6736 4.74203 13.7439L3.71846 13.172C3.64492 13.3119 3.60505 13.4671 3.60204 13.6252C3.59735 13.7408 3.6036 13.8791 3.60985 14.0127L4.78032 13.9635ZM5.21709 9.75982C4.99519 9.63559 4.84986 9.55433 4.75219 9.4926C4.72567 9.47693 4.7001 9.45972 4.67562 9.44103C4.66468 9.43165 4.70453 9.45978 4.74203 9.52698L3.71846 10.0997C3.78409 10.2154 3.87082 10.295 3.92864 10.3435C3.99115 10.3951 4.06069 10.4419 4.12711 10.4841C4.25759 10.567 4.43652 10.6662 4.64514 10.7834L5.21709 9.75982ZM3.60829 9.25976C3.60282 9.39337 3.59657 9.53167 3.60126 9.64731C3.60673 9.76451 3.6247 9.93406 3.71846 10.1005L4.74203 9.52854C4.7811 9.59886 4.77485 9.64731 4.7725 9.59574C4.77133 9.56085 4.77133 9.52593 4.7725 9.49104L4.77954 9.30898L3.60829 9.25976ZM14.1589 7.72831L14.1526 5.77337L12.9814 5.77728L12.9868 7.73144L14.1589 7.72831ZM14.3558 7.92521C14.33 7.92542 14.3044 7.92052 14.2805 7.91079C14.2567 7.90107 14.2349 7.88671 14.2166 7.86855C14.1983 7.85039 14.1838 7.82879 14.1739 7.80499C14.164 7.78119 14.1589 7.75566 14.1589 7.72987H12.9868C12.9868 8.48622 13.601 9.09724 14.3558 9.09724V7.92521ZM14.555 7.72987C14.555 7.83614 14.4675 7.92521 14.3573 7.92521V9.09724C15.1121 9.09724 15.727 8.48622 15.727 7.72987H14.555ZM14.555 5.789V7.72987H15.727V5.789H14.555ZM15.5239 5.98668C17.2335 6.03043 18 6.21483 18.5024 6.71646L19.3306 5.88666C18.461 5.01937 17.2311 4.85841 15.5536 4.81465L15.5239 5.98668ZM15.727 5.789C15.727 5.89839 15.6364 5.98902 15.5239 5.98668L15.5536 4.81465C15.4236 4.81142 15.2943 4.83423 15.1733 4.88175C15.0523 4.92927 14.942 5.00052 14.8489 5.09132C14.7558 5.18212 14.6819 5.29063 14.6314 5.41045C14.581 5.53027 14.555 5.65898 14.555 5.789H15.727ZM13.1759 5.97183C13.1243 5.97163 13.0756 5.95095 13.0391 5.91434C13.0026 5.87773 12.9822 5.82817 12.9822 5.77649L14.1542 5.77337C14.1534 5.51488 14.0501 5.26725 13.867 5.08477C13.6839 4.90228 13.436 4.7998 13.1775 4.79981L13.1759 5.97183ZM15.9575 18.4453C17.4226 18.3828 18.5274 18.1875 19.3299 17.3866L18.5008 16.5568C18.043 17.0147 17.3577 17.2131 15.9091 17.2741L15.9575 18.4453ZM14.555 15.5434V17.0881H15.727V15.5434H14.555ZM12.9837 17.1061C12.9837 17.2006 12.9837 17.2733 12.9814 17.335C12.9798 17.3975 12.9767 17.4335 12.9736 17.4561C12.9704 17.4788 12.9697 17.471 12.9783 17.4483C12.9934 17.415 13.0143 17.3846 13.04 17.3585L13.8674 18.1883C14.018 18.0326 14.1121 17.8309 14.1347 17.6155C14.1557 17.4616 14.1542 17.2772 14.155 17.11L12.9837 17.1061ZM12.7876 18.4735C12.9548 18.4735 13.14 18.475 13.2939 18.4539C13.465 18.4305 13.683 18.3719 13.8674 18.1883L13.0392 17.3585C13.0658 17.3329 13.0968 17.3123 13.1306 17.2975C13.1525 17.2881 13.1603 17.2897 13.1384 17.292C13.0979 17.2962 13.0573 17.2988 13.0165 17.2999C12.954 17.3014 12.8814 17.3014 12.7876 17.3014V18.4735ZM15.9091 17.2741C15.8153 17.278 15.7427 17.2811 15.6809 17.2819C15.6192 17.2827 15.5833 17.2819 15.5622 17.2795C15.5411 17.2772 15.5505 17.2756 15.5739 17.285C15.6028 17.296 15.6364 17.3163 15.6669 17.3444L14.8558 18.1906C15.0465 18.3734 15.2692 18.4281 15.4473 18.4453C15.6052 18.4609 15.7903 18.4524 15.9575 18.4453L15.9091 17.2741ZM14.555 17.0881C14.555 17.2584 14.5535 17.4475 14.5753 17.6062C14.5996 17.7827 14.6628 18.0054 14.8558 18.1906L15.6669 17.3444C15.6981 17.3741 15.7184 17.4077 15.731 17.4358C15.7403 17.4593 15.7388 17.4671 15.7364 17.4452C15.7322 17.4039 15.7296 17.3625 15.7286 17.321C15.727 17.2584 15.727 17.1842 15.727 17.0881H14.555Z" fill="#8C8C8D"/>
</svg>
