<svg width="24" height="24" viewBox="0 0 24 24" fill="none" xmlns="http://www.w3.org/2000/svg">
<path d="M12.6672 3.35156C12.4708 3.35156 12.2812 3.42397 12.1348 3.55493L3.84981 11.9315C3.57265 12.2094 3.56772 12.6577 3.8387 12.9417L3.85054 12.9541L10.7505 19.854L10.7618 19.8648C11.0464 20.1364 11.4957 20.1317 11.7746 19.854L20.1489 11.569C20.2795 11.4221 20.3516 11.2324 20.3516 11.0359V4.56585C20.3516 3.89522 19.8079 3.35156 19.1373 3.35156H12.6672ZM12.6191 5.16238C12.847 4.9331 13.1569 4.80418 13.4802 4.80418H17.6847C18.3553 4.80418 18.8989 5.34784 18.8989 6.01847V10.2229C18.8989 10.5462 18.77 10.8561 18.5407 11.084L12.1313 17.4556C11.6567 17.9274 10.8898 17.9263 10.4166 17.4531L6.25004 13.2865C5.77682 12.8133 5.77568 12.0464 6.2475 11.5718L12.6191 5.16238ZM16.72 6.2568C16.5274 6.2568 16.3426 6.33332 16.2064 6.46953C16.0702 6.60574 15.9937 6.79048 15.9937 6.98311C15.9937 7.17574 16.0702 7.36048 16.2064 7.49669C16.3426 7.6329 16.5274 7.70942 16.72 7.70942C16.9126 7.70942 17.0974 7.6329 17.2336 7.49669C17.3698 7.36048 17.4463 7.17574 17.4463 6.98311C17.4463 6.79048 17.3698 6.60574 17.2336 6.46953C17.0974 6.33332 16.9126 6.2568 16.72 6.2568Z" fill="#8C8C8D"/>
</svg>
