<svg width="24" height="24" viewBox="0 0 24 24" fill="none" xmlns="http://www.w3.org/2000/svg">
<path fill-rule="evenodd" clip-rule="evenodd" d="M19.0627 12.0092L11.9908 19.0504C11.0482 19.9706 9.78056 20.4816 8.46333 20.4723C7.14611 20.463 5.88581 19.9341 4.9564 19.0006C4.02699 18.0671 3.5036 16.8046 3.50002 15.4873C3.49644 14.17 4.01294 12.9046 4.93726 11.9661L12.0092 4.92494C12.9518 4.00472 14.2194 3.49373 15.5367 3.50306C16.8539 3.51238 18.1142 4.04126 19.0436 4.97473C19.973 5.9082 20.4964 7.1708 20.5 8.48805C20.5036 9.80531 19.9871 11.0707 19.0627 12.0092ZM17.8302 6.18298C17.2242 5.57516 16.4018 5.23267 15.5435 5.23069C14.6852 5.22871 13.8611 5.5674 13.2523 6.17241L6.17946 13.2136C5.57087 13.8195 5.22791 14.6423 5.22601 15.5011C5.22411 16.3599 5.56343 17.1842 6.16933 17.7928C6.77523 18.4014 7.59808 18.7444 8.45685 18.7463C9.31562 18.7482 10.14 18.4088 10.7486 17.8029L17.8205 10.7618C18.4286 10.1557 18.7713 9.33308 18.7733 8.47456C18.7753 7.61603 18.4364 6.79183 17.8311 6.18298H17.8302Z" fill="#8C8C8D" stroke="#0F071A"/>
<path fill-rule="evenodd" clip-rule="evenodd" d="M9.21857 9.21857C9.35856 9.07862 9.5484 9 9.74634 9C9.94429 9 10.1341 9.07862 10.2741 9.21857L14.7904 13.7349C14.9264 13.8757 15.0017 14.0643 15 14.26C14.9983 14.4557 14.9198 14.6429 14.7814 14.7814C14.6429 14.9198 14.4557 14.9983 14.26 15C14.0643 15.0017 13.8757 14.9264 13.7349 14.7904L9.21857 10.2741C9.07862 10.1341 9 9.94429 9 9.74634C9 9.5484 9.07862 9.35856 9.21857 9.21857Z" fill="#8C8C8D"/>
</svg>
