<svg width="24" height="24" viewBox="0 0 24 24" fill="none" xmlns="http://www.w3.org/2000/svg">
<path d="M3 7.22217C3 6.42652 3.31607 5.66346 3.87868 5.10085C4.44129 4.53824 5.20435 4.22217 6 4.22217H18C18.7956 4.22217 19.5587 4.53824 20.1213 5.10085C20.6839 5.66346 21 6.42652 21 7.22217V17.2222C21 18.0178 20.6839 18.7809 20.1213 19.3435C19.5587 19.9061 18.7956 20.2222 18 20.2222H6C5.20435 20.2222 4.44129 19.9061 3.87868 19.3435C3.31607 18.7809 3 18.0178 3 17.2222V7.22217Z" stroke="#8C8C8D" stroke-width="1.05882" stroke-linecap="round" stroke-linejoin="round"/>
<path d="M15 8.22217H17M15 12.2222H17M7 16.2222H17M7 10.2222C7 10.7526 7.21071 11.2613 7.58579 11.6364C7.96086 12.0115 8.46957 12.2222 9 12.2222C9.53043 12.2222 10.0391 12.0115 10.4142 11.6364C10.7893 11.2613 11 10.7526 11 10.2222C11 9.69173 10.7893 9.18303 10.4142 8.80795C10.0391 8.43288 9.53043 8.22217 9 8.22217C8.46957 8.22217 7.96086 8.43288 7.58579 8.80795C7.21071 9.18303 7 9.69173 7 10.2222Z" stroke="#8C8C8D" stroke-linecap="round" stroke-linejoin="round"/>
</svg>
