<svg width="24" height="24" viewBox="0 0 24 24" fill="none" xmlns="http://www.w3.org/2000/svg">
<path d="M12 3.5C7.30603 3.5 3.5 7.30603 3.5 12C3.5 16.694 7.30603 20.5 12 20.5C16.694 20.5 20.5 16.694 20.5 12C20.5 7.30603 16.694 3.5 12 3.5ZM12 19.058C8.1029 19.058 4.94196 15.8971 4.94196 12C4.94196 10.3114 5.53583 8.75938 6.52623 7.54509L16.4549 17.4738C15.2406 18.4642 13.6886 19.058 12 19.058ZM17.4738 16.4549L7.54509 6.52623C8.75938 5.53583 10.3114 4.94196 12 4.94196C15.8971 4.94196 19.058 8.1029 19.058 12C19.058 13.6886 18.4642 15.2406 17.4738 16.4549Z" fill="#8C8C8D"/>
</svg>
