<svg width="1031" height="141" viewBox="0 0 1031 141" fill="none" xmlns="http://www.w3.org/2000/svg">
<path d="M37.06 117.2C36.95 117.43 36.83 117.88 36.72 118.56C35.47 123.21 34.82 127.37 34.76 131.05C34.7 134.73 36.26 137.26 39.44 138.62H0C3.62 137.26 6.32 134.79 8.07 131.23C9.83 127.66 11.27 123.49 12.4 118.73C12.51 118.05 12.63 117.54 12.74 117.2L38.24 14.6898C30.87 18.1998 24.19 23.7799 18.18 31.4398C12.17 39.0898 6.39 48.0098 0.84 58.2098L14.61 9.58984H88.9L78.19 58.2098C78.07 49.4798 76.77 40.7598 74.28 32.0298C71.79 23.2998 67.88 17.5198 62.55 14.6898L37.05 117.2H37.06Z" fill="white"/>
<path d="M139.74 117.2C139.62 117.43 139.51 117.88 139.4 118.56C138.15 123.21 137.5 127.37 137.44 131.05C137.38 134.73 138.94 137.26 142.11 138.62H102.67C106.29 137.26 108.99 134.79 110.74 131.23C112.5 127.66 113.94 123.49 115.08 118.73C115.19 118.05 115.3 117.54 115.42 117.2L123.41 85.0699C126.24 73.7399 125.79 68.0699 122.05 68.0699C118.31 68.0699 113.81 72.9699 108.54 82.7799C103.27 92.5799 98.9896 104.11 95.6996 117.37C95.5896 117.6 95.4696 117.94 95.3596 118.39C94.1096 123.15 93.4896 127.37 93.4896 131.06C93.4896 134.75 95.0197 137.27 98.0797 138.63H58.6396C62.3796 137.27 65.1296 134.75 66.8796 131.06C68.6396 127.38 70.0796 123.21 71.2096 118.57C71.3296 117.89 71.4397 117.44 71.5497 117.21L92.9697 31.0199C93.0797 30.7899 93.1896 30.3999 93.3096 29.8299C94.5596 25.0699 95.2096 20.8499 95.2696 17.1599C95.3196 13.4799 93.8197 10.9499 90.7597 9.58994C96.7697 9.58994 102.8 9.18993 108.87 8.39993C114.93 7.60993 119.83 6.52992 123.58 5.16992L103.18 87.45C108.28 76.8 113.97 68.4899 120.27 62.5399C126.56 56.5899 132.82 53.6199 139.05 53.6199C144.38 53.6199 147.92 55.8599 149.67 60.3299C151.43 64.8099 151.23 71.18 149.08 79.45L139.73 117.19L139.74 117.2Z" fill="white"/>
<path d="M209.44 100.79C201.96 106.4 192.21 111.75 180.2 116.86C182.35 123.32 186.77 126.55 193.46 126.55C198.67 126.55 204.08 124.74 209.69 121.11C215.3 117.48 220.37 111.82 224.9 104.11C219.12 116.8 212.18 125.98 204.08 131.65C195.98 137.32 187.5 140.15 178.66 140.15C167.78 140.15 160.05 136.35 155.45 128.76C150.86 121.17 150.16 110.97 153.33 98.1601C156.73 84.5601 162.96 73.7401 172.03 65.6901C181.1 57.6401 191.13 53.6201 202.12 53.6201C209.83 53.6201 215.95 55.6901 220.48 59.8301C225.01 63.9701 226.2 70.2901 224.05 78.7901C221.78 87.8601 216.91 95.2001 209.43 100.8L209.44 100.79ZM179.69 115.5C190.23 106.77 197.54 94.4201 201.62 78.4401C203.21 71.7501 203.83 66.4501 203.49 62.5401C203.15 58.6301 201.9 56.6701 199.75 56.6701C196.8 56.6701 193.6 59.7001 190.15 65.7701C186.69 71.8301 183.83 79.4001 181.56 88.4601C178.73 99.9101 178.1 108.92 179.69 115.49V115.5Z" fill="white"/>
<path d="M294.44 117.2C294.32 117.43 294.21 117.88 294.1 118.56C292.85 123.21 292.2 127.37 292.14 131.05C292.08 134.73 293.64 137.26 296.82 138.62H257.38C261.12 137.26 263.87 134.74 265.63 131.05C267.39 127.37 268.83 123.2 269.96 118.56C270.08 117.88 270.19 117.43 270.3 117.2L291.72 31.0101C291.83 30.7801 291.95 30.3901 292.06 29.8201C293.31 25.0601 293.96 20.8401 294.02 17.1501C294.08 13.4701 292.58 10.9401 289.52 9.58008H328.96C325.22 10.9401 322.44 13.4601 320.63 17.1501C318.82 20.8301 317.34 25.0601 316.21 29.8201C316.1 30.3901 315.98 30.7801 315.87 31.0101L294.45 117.2H294.44Z" fill="white"/>
<path d="M380.12 117.2C380 117.43 379.89 117.88 379.78 118.56C378.53 123.21 377.88 127.37 377.82 131.05C377.76 134.73 379.32 137.26 382.49 138.62H343.05C346.68 137.26 349.37 134.79 351.13 131.23C352.89 127.66 354.33 123.49 355.46 118.73C355.57 118.05 355.69 117.54 355.8 117.2L363.79 85.0699C366.62 73.7399 366.17 68.0699 362.43 68.0699C358.69 68.0699 354.18 72.9699 348.91 82.7799C343.64 92.5799 339.36 104.11 336.08 117.37C335.96 117.6 335.85 117.94 335.74 118.39C334.49 123.15 333.87 127.37 333.87 131.06C333.87 134.75 335.4 137.27 338.46 138.63H299.02C302.76 137.27 305.51 134.75 307.26 131.06C309.02 127.38 310.46 123.21 311.6 118.57C311.71 117.89 311.83 117.44 311.94 117.21L320.95 81.1699C320.95 80.9399 321.06 80.4899 321.29 79.8099C322.54 75.1599 323.16 70.9999 323.16 67.3099C323.16 63.6199 321.63 61.1099 318.57 59.7499C324.58 59.7499 330.61 59.3299 336.68 58.4699C342.74 57.6199 347.7 56.5099 351.56 55.1599L343.57 87.4599C348.67 76.8099 354.36 68.4999 360.66 62.5499C366.95 56.5999 373.21 53.6299 379.45 53.6299C384.78 53.6299 388.32 55.8699 390.07 60.3399C391.83 64.8199 391.63 71.1899 389.47 79.4599L380.12 117.2Z" fill="white"/>
<path d="M464.61 117.2C464.5 117.43 464.38 117.88 464.27 118.56C463.02 123.21 462.37 127.37 462.31 131.05C462.25 134.73 463.81 137.26 466.99 138.62H427.55C431.17 137.26 433.87 134.79 435.62 131.23C437.38 127.66 438.82 123.49 439.96 118.73C440.07 118.05 440.18 117.54 440.3 117.2L448.29 85.0699C451.12 73.7399 450.67 68.0699 446.93 68.0699C443.19 68.0699 438.69 72.9699 433.42 82.7799C428.15 92.5799 423.87 104.11 420.58 117.37C420.47 117.6 420.35 117.94 420.24 118.39C418.99 123.15 418.37 127.37 418.37 131.06C418.37 134.75 419.9 137.27 422.96 138.63H383.52C387.26 137.27 390.01 134.75 391.77 131.06C393.53 127.38 394.97 123.21 396.1 118.57C396.22 117.89 396.33 117.44 396.44 117.21L405.45 81.1699C405.45 80.9399 405.56 80.4899 405.79 79.8099C407.03 75.1599 407.66 70.9999 407.66 67.3099C407.66 63.6199 406.13 61.1099 403.07 59.7499C409.08 59.7499 415.11 59.3299 421.18 58.4699C427.24 57.6199 432.2 56.5099 436.06 55.1599L428.07 87.4599C433.17 76.8099 438.86 68.4999 445.15 62.5499C451.44 56.5999 457.7 53.6299 463.94 53.6299C469.27 53.6299 472.81 55.8699 474.56 60.3399C476.32 64.8199 476.12 71.1899 473.97 79.4599L464.62 117.2H464.61Z" fill="white"/>
<path d="M534.31 100.79C526.83 106.4 517.08 111.75 505.07 116.86C507.22 123.32 511.64 126.55 518.33 126.55C523.54 126.55 528.95 124.74 534.57 121.11C540.18 117.48 545.25 111.82 549.78 104.11C544 116.8 537.06 125.98 528.95 131.65C520.85 137.32 512.38 140.15 503.54 140.15C492.66 140.15 484.92 136.35 480.33 128.76C475.74 121.17 475.03 110.97 478.21 98.1601C481.61 84.5601 487.84 73.7401 496.91 65.6901C505.98 57.6401 516.01 53.6201 527 53.6201C534.71 53.6201 540.83 55.6901 545.36 59.8301C549.89 63.9701 551.08 70.2901 548.93 78.7901C546.66 87.8601 541.79 95.2001 534.31 100.8V100.79ZM504.56 115.5C515.1 106.77 522.41 94.4201 526.49 78.4401C528.08 71.7501 528.7 66.4501 528.36 62.5401C528.02 58.6301 526.77 56.6701 524.62 56.6701C521.67 56.6701 518.47 59.7001 515.01 65.7701C511.55 71.8301 508.69 79.4001 506.43 88.4601C503.59 99.9101 502.97 108.92 504.56 115.49V115.5Z" fill="white"/>
<path d="M606.39 90.8499C607.98 84.4999 608.49 79.1199 607.92 74.6999C607.35 70.2799 605.94 68.0699 603.67 68.0699C601.4 68.0699 598.68 70.3399 595.51 74.8699C592.33 79.3999 589.16 85.4699 585.99 93.0599C582.82 100.65 580.15 108.76 578 117.37C577.88 117.6 577.77 117.94 577.66 118.39C576.41 123.15 575.79 127.37 575.79 131.06C575.79 134.75 577.32 137.27 580.38 138.63H540.94C544.68 137.27 547.43 134.75 549.18 131.06C550.94 127.38 552.38 123.21 553.52 118.57C553.63 117.89 553.75 117.44 553.86 117.21L562.87 81.1699C562.87 80.9399 562.98 80.4899 563.21 79.8099C564.46 75.1599 565.08 70.9999 565.08 67.3099C565.08 63.6199 563.55 61.1099 560.49 59.7499C566.5 59.7499 572.53 59.3299 578.6 58.4699C584.66 57.6199 589.62 56.5099 593.48 55.1599L585.49 87.1199C590.36 76.8099 595.61 68.6499 601.21 62.6399C606.82 56.6299 611.95 53.6299 616.6 53.6299C618.64 53.6299 620.79 54.2199 623.06 55.4199C625.33 56.6099 627.2 58.2199 628.67 60.2599L606.4 90.8599L606.39 90.8499Z" fill="white"/>
<path d="M726.07 66.7098C730.26 54.0198 732.73 43.4998 733.46 35.1698C734.2 26.8398 733.69 20.7498 731.93 16.8998C730.17 13.0498 727.82 11.1198 724.88 11.1198C721.7 11.1198 718.34 13.1298 714.76 17.1598C711.19 21.1798 707.59 27.2798 703.97 35.4298C700.34 43.5898 697 53.7898 693.94 66.0298C689.07 85.5198 687.45 100.48 689.1 110.91C690.74 121.34 695.31 126.55 702.78 126.55C709.01 126.55 715.42 123.07 721.99 116.09C728.56 109.12 734.97 97.4798 741.2 81.1598C735.87 101.9 728.48 116.92 719.01 126.21C709.55 135.5 699.77 140.15 689.68 140.15C682.54 140.15 676.53 137.8 671.66 133.09C666.79 128.39 663.7 121.22 662.39 111.59C661.09 101.96 662.36 89.3198 666.22 73.6798C669.96 58.7198 674.92 46.3398 681.1 36.5398C687.28 26.7398 694.05 19.5398 701.41 14.9498C708.78 10.3598 716.2 8.06982 723.68 8.06982C729.57 8.06982 734.87 9.50981 739.58 12.3998C744.28 15.2898 747.88 19.6198 750.37 25.3998L726.06 66.7098H726.07Z" fill="white"/>
<path d="M765.34 117.2C765.23 117.43 765.11 117.88 765 118.56C763.75 123.21 763.1 127.37 763.04 131.05C762.98 134.73 764.54 137.26 767.72 138.62H728.28C732.02 137.26 734.77 134.74 736.53 131.05C738.29 127.37 739.73 123.2 740.86 118.56C740.98 117.88 741.09 117.43 741.2 117.2L750.21 81.1599C750.21 80.9299 750.32 80.4799 750.55 79.7999C751.79 75.1499 752.42 70.9899 752.42 67.2999C752.42 63.6099 750.89 61.0999 747.83 59.7399C753.84 59.7399 759.87 59.3199 765.94 58.4599C772 57.6099 776.96 56.4999 780.82 55.1499L765.35 117.2H765.34Z" fill="white"/>
<path d="M834.53 90.8499C836.12 84.4999 836.63 79.1199 836.06 74.6999C835.49 70.2799 834.08 68.0699 831.81 68.0699C829.54 68.0699 826.82 70.3399 823.65 74.8699C820.47 79.3999 817.3 85.4699 814.13 93.0599C810.96 100.65 808.29 108.76 806.14 117.37C806.02 117.6 805.91 117.94 805.8 118.39C804.55 123.15 803.93 127.37 803.93 131.06C803.93 134.75 805.46 137.27 808.52 138.63H769.08C772.82 137.27 775.57 134.75 777.32 131.06C779.08 127.38 780.52 123.21 781.66 118.57C781.77 117.89 781.89 117.44 782 117.21L791.01 81.1699C791.01 80.9399 791.12 80.4899 791.35 79.8099C792.6 75.1599 793.22 70.9999 793.22 67.3099C793.22 63.6199 791.69 61.1099 788.63 59.7499C794.64 59.7499 800.67 59.3299 806.74 58.4699C812.8 57.6199 817.76 56.5099 821.62 55.1599L813.63 87.1199C818.5 76.8099 823.75 68.6499 829.35 62.6399C834.96 56.6299 840.09 53.6299 844.74 53.6299C846.78 53.6299 848.93 54.2199 851.2 55.4199C853.47 56.6099 855.34 58.2199 856.81 60.2599L834.54 90.8599L834.53 90.8499Z" fill="white"/>
<path d="M899.13 96.9701C901.51 84.1601 902.39 74.2501 901.76 67.2201C901.14 60.1901 899.01 56.6801 895.38 56.6801C891.75 56.6801 887.59 59.8301 883.22 66.1201C878.85 72.4101 875.43 80.5401 872.93 90.5101C870.21 101.39 869.87 110.12 871.91 116.69C873.95 123.26 878.43 126.55 885.34 126.55C890.55 126.55 895.96 124.74 901.58 121.11C907.19 117.48 912.26 111.82 916.79 104.11C911.01 116.8 904.07 125.98 895.96 131.65C887.86 137.32 879.39 140.15 870.55 140.15C859.67 140.15 851.93 136.35 847.34 128.76C842.75 121.17 842.04 110.97 845.22 98.1601C848.62 84.5601 854.85 73.7401 863.92 65.6901C872.99 57.6401 882.96 53.6201 893.84 53.6201C900.75 53.6201 906.19 55.1801 910.16 58.2901C914.13 61.4101 917.24 65.6301 919.51 70.9601L899.11 96.9701H899.13Z" fill="white"/>
<path d="M944.52 117.2C944.41 117.43 944.29 117.88 944.18 118.56C942.93 123.21 942.28 127.37 942.22 131.05C942.16 134.73 943.72 137.26 946.9 138.62H907.46C911.2 137.26 913.95 134.74 915.7 131.05C917.46 127.37 918.9 123.2 920.03 118.56C920.15 117.88 920.26 117.43 920.37 117.2L941.79 31.0102C941.9 30.7802 942.01 30.3902 942.13 29.8202C943.38 25.0602 944.03 20.8401 944.09 17.1501C944.14 13.4701 942.64 10.9401 939.58 9.58014C945.59 9.58014 951.62 9.18014 957.69 8.39014C963.75 7.60014 968.65 6.52016 972.4 5.16016L944.52 117.19V117.2Z" fill="white"/>
<path d="M1014.56 100.79C1007.08 106.4 997.33 111.75 985.32 116.86C987.47 123.32 991.89 126.55 998.58 126.55C1003.79 126.55 1009.2 124.74 1014.81 121.11C1020.42 117.48 1025.49 111.82 1030.02 104.11C1024.24 116.8 1017.3 125.98 1009.2 131.65C1001.1 137.32 992.62 140.15 983.78 140.15C972.9 140.15 965.17 136.35 960.57 128.76C955.98 121.17 955.28 110.97 958.45 98.1601C961.85 84.5601 968.08 73.7401 977.15 65.6901C986.22 57.6401 996.25 53.6201 1007.24 53.6201C1014.95 53.6201 1021.07 55.6901 1025.6 59.8301C1030.13 63.9701 1031.32 70.2901 1029.17 78.7901C1026.9 87.8601 1022.03 95.2001 1014.55 100.8H1014.56V100.79ZM984.81 115.5C995.35 106.77 1002.66 94.4201 1006.74 78.4401C1008.33 71.7501 1008.95 66.4501 1008.61 62.5401C1008.27 58.6301 1007.02 56.6701 1004.87 56.6701C1001.92 56.6701 998.72 59.7001 995.27 65.7701C991.81 71.8301 988.95 79.4001 986.68 88.4601C983.85 99.9101 983.22 108.92 984.81 115.49V115.5Z" fill="white"/>
<path d="M796.52 18.77C794.5 29.14 784.47 37.54 774.1 37.54C763.73 37.54 756.96 29.14 758.98 18.77C761 8.39999 771.03 0 781.4 0C791.77 0 798.54 8.39999 796.52 18.77Z" fill="#E34F26"/>
</svg>
